Eurostile-Medium.ufo
<glyph name="quotedbl" format="1">
  <advance width="355"/>
  <unicode hex="0022"/>
  <outline>
    <contour>
      <point x="51" y="750" type="line"/>
      <point x="51" y="639" type="line"/>
      <point x="78" y="504" type="line"/>
      <point x="118" y="504" type="line"/>
      <point x="145" y="639" type="line"/>
      <point x="145" y="750" type="line"/>
    </contour>
    <contour>
      <point x="210" y="750" type="line"/>
      <point x="210" y="639" type="line"/>
      <point x="237" y="504" type="line"/>
      <point x="277" y="504" type="line"/>
      <point x="304" y="639" type="line"/>
      <point x="304" y="750" type="line"/>
    </contour>
  </outline>
</glyph>
<glyph name="numbersign" format="1">
  <advance width="690"/>
  <unicode hex="0023"/>
  <outline>
    <contour>
      <point x="273" y="750" type="line"/>
      <point x="237" y="546" type="line"/>
      <point x="118" y="546" type="line"/>
      <point x="118" y="466" type="line"/>
      <point x="223" y="466" type="line"/>
      <point x="196" y="303" type="line"/>
      <point x="81" y="303" type="line"/>
      <point x="81" y="223" type="line"/>
      <point x="181" y="223" type="line"/>
      <point x="144" y="0" type="line"/>
      <point x="219" y="0" type="line"/>
      <point x="259" y="223" type="line"/>
      <point x="382" y="223" type="line"/>
      <point x="345" y="0" type="line"/>
      <point x="421" y="0" type="line"/>
      <point x="459" y="223" type="line"/>
      <point x="576" y="223" type="line"/>
      <point x="576" y="303" type="line"/>
      <point x="475" y="303" type="line"/>
      <point x="502" y="466" type="line"/>
      <point x="609" y="466" type="line"/>
      <point x="609" y="546" type="line"/>
      <point x="517" y="546" type="line"/>
      <point x="552" y="750" type="line"/>
      <point x="473" y="750" type="line"/>
      <point x="438" y="546" type="line"/>
      <point x="314" y="546" type="line"/>
      <point x="350" y="750" type="line"/>
    </contour>
    <contour>
      <point x="301" y="466" type="line"/>
      <point x="424" y="466" type="line"/>
      <point x="397" y="303" type="line"/>
      <point x="274" y="303" type="line"/>
    </contour>
  </outline>
</glyph>
<glyph name="ampersand" format="1">
  <advance width="788"/>
  <unicode hex="0026"/>
  <outline>
    <contour>
      <point x="563" y="144" type="line"/>
      <point x="558" y="119"/>
      <point x="522" y="88"/>
      <point x="467" y="73"/>
      <point x="401" y="69"/>
      <point x="349" y="69" type="qcurve" smooth="yes"/>
      <point x="276" y="69"/>
      <point x="202" y="78"/>
      <point x="163" y="108"/>
      <point x="149" y="168"/>
      <point x="149" y="226" type="qcurve" smooth="yes"/>
      <point x="149" y="274"/>
      <point x="157" y="325"/>
      <point x="180" y="356"/>
      <point x="225" y="375"/>
      <point x="270" y="385" type="qcurve"/>
    </contour>
    <contour>
      <point x="740" y="0" type="line"/>
      <point x="786" y="59" type="line"/>
      <point x="650" y="167" type="line"/>
      <point x="659" y="211"/>
      <point x="659" y="272" type="qcurve" smooth="yes"/>
      <point x="659" y="292"/>
      <point x="657" y="328" type="qcurve" smooth="yes"/>
      <point x="657" y="331" type="line"/>
      <point x="579" y="331" type="line"/>
      <point x="579" y="325"/>
      <point x="580" y="310" type="qcurve" smooth="yes"/>
      <point x="581" y="289"/>
      <point x="581" y="279" type="qcurve" smooth="yes"/>
      <point x="580" y="268"/>
      <point x="580" y="254" type="qcurve" smooth="yes"/>
      <point x="579" y="240"/>
      <point x="578" y="229" type="qcurve"/>
      <point x="286" y="474" type="line" smooth="yes"/>
      <point x="255" y="500"/>
      <point x="234" y="541"/>
      <point x="234" y="579" type="qcurve" smooth="yes"/>
      <point x="234" y="615"/>
      <point x="256" y="657"/>
      <point x="294" y="676"/>
      <point x="342" y="681"/>
      <point x="379" y="681" type="qcurve" smooth="yes"/>
      <point x="423" y="681"/>
      <point x="471" y="672"/>
      <point x="497" y="648"/>
      <point x="506" y="606"/>
      <point x="506" y="567" type="qcurve" smooth="yes"/>
      <point x="506" y="520" type="line"/>
      <point x="591" y="520" type="line"/>
      <point x="591" y="567" type="line" smooth="yes"/>
      <point x="591" y="625"/>
      <point x="564" y="700"/>
      <point x="510" y="740"/>
      <point x="434" y="756"/>
      <point x="379" y="756" type="qcurve" smooth="yes"/>
      <point x="320" y="756"/>
      <point x="237" y="741"/>
      <point x="179" y="703"/>
      <point x="149" y="634"/>
      <point x="149" y="579" type="qcurve" smooth="yes"/>
      <point x="149" y="520"/>
      <point x="177" y="464"/>
      <point x="217" y="431" type="qcurve"/>
      <point x="204" y="427"/>
      <point x="190" y="424" type="qcurve" smooth="yes"/>
      <point x="153" y="414"/>
      <point x="112" y="397"/>
      <point x="81" y="359"/>
      <point x="64" y="287"/>
      <point x="64" y="227" type="qcurve" smooth="yes"/>
      <point x="64" y="143"/>
      <point x="104" y="47"/>
      <point x="177" y="4"/>
      <point x="269" y="-6"/>
      <point x="349" y="-6" type="qcurve" smooth="yes"/>
      <point x="409" y="-6"/>
      <point x="485" y="-2"/>
      <point x="558" y="16"/>
      <point x="614" y="57"/>
      <point x="629" y="92" type="qcurve"/>
    </contour>
  </outline>
</glyph>
<glyph name="quotesingle" format="1">
  <advance width="191"/>
  <unicode hex="0027"/>
  <outline>
    <contour>
      <point x="49" y="750" type="line"/>
      <point x="49" y="639" type="line"/>
      <point x="76" y="504" type="line"/>
      <point x="116" y="504" type="line"/>
      <point x="143" y="639" type="line"/>
      <point x="143" y="750" type="line"/>
    </contour>
  </outline>
</glyph>
<glyph name="parenleft" format="1">
  <advance width="312"/>
  <unicode hex="0028"/>
  <outline>
    <contour>
      <point x="250" y="756" type="line"/>
      <point x="223" y="756" type="line" smooth="yes"/>
      <point x="170" y="756"/>
      <point x="102" y="720"/>
      <point x="67" y="655"/>
      <point x="55" y="575"/>
      <point x="55" y="521" type="qcurve" smooth="yes"/>
      <point x="55" y="85" type="line" smooth="yes"/>
      <point x="55" y="31"/>
      <point x="67" y="-50"/>
      <point x="102" y="-113"/>
      <point x="170" y="-150"/>
      <point x="223" y="-150" type="qcurve" smooth="yes"/>
      <point x="250" y="-150" type="line"/>
      <point x="250" y="-75" type="line"/>
      <point x="223" y="-75" type="line" smooth="yes"/>
      <point x="194" y="-75"/>
      <point x="159" y="-44"/>
      <point x="144" y="4"/>
      <point x="140" y="53"/>
      <point x="140" y="85" type="qcurve" smooth="yes"/>
      <point x="140" y="521" type="line" smooth="yes"/>
      <point x="140" y="554"/>
      <point x="144" y="602"/>
      <point x="159" y="650"/>
      <point x="194" y="681"/>
      <point x="223" y="681" type="qcurve" smooth="yes"/>
      <point x="250" y="681" type="line"/>
    </contour>
  </outline>
</glyph>
<glyph name="parenright" format="1">
  <advance width="312"/>
  <unicode hex="0029"/>
  <outline>
    <contour>
      <point x="62" y="681" type="line"/>
      <point x="89" y="681" type="line" smooth="yes"/>
      <point x="118" y="681"/>
      <point x="153" y="650"/>
      <point x="168" y="602"/>
      <point x="172" y="554"/>
      <point x="172" y="521" type="qcurve" smooth="yes"/>
      <point x="172" y="85" type="line" smooth="yes"/>
      <point x="172" y="53"/>
      <point x="169" y="4"/>
      <point x="153" y="-44"/>
      <point x="118" y="-75"/>
      <point x="89" y="-75" type="qcurve" smooth="yes"/>
      <point x="62" y="-75" type="line"/>
      <point x="62" y="-150" type="line"/>
      <point x="89" y="-150" type="line" smooth="yes"/>
      <point x="143" y="-150"/>
      <point x="210" y="-114"/>
      <point x="245" y="-49"/>
      <point x="257" y="31"/>
      <point x="257" y="85" type="qcurve" smooth="yes"/>
      <point x="257" y="521" type="line" smooth="yes"/>
      <point x="257" y="575"/>
      <point x="245" y="656"/>
      <point x="210" y="719"/>
      <point x="143" y="756"/>
      <point x="89" y="756" type="qcurve" smooth="yes"/>
      <point x="62" y="756" type="line"/>
    </contour>
  </outline>
</glyph>
<glyph name="hyphen" format="1">
  <advance width="261"/>
  <unicode hex="002D"/>
  <outline>
    <contour>
      <point x="0" y="311" type="line"/>
      <point x="0" y="236" type="line"/>
      <point x="261" y="236" type="line"/>
      <point x="261" y="311" type="line"/>
    </contour>
  </outline>
</glyph>
<glyph name="zero" format="1">
  <advance width="690"/>
  <unicode hex="0030"/>
  <outline>
    <contour>
      <point x="344" y="681" type="qcurve" smooth="yes"/>
      <point x="429" y="681"/>
      <point x="507" y="673"/>
      <point x="558" y="638"/>
      <point x="579" y="559"/>
      <point x="579" y="485" type="qcurve" smooth="yes"/>
      <point x="579" y="265" type="line" smooth="yes"/>
      <point x="579" y="191"/>
      <point x="558" y="112"/>
      <point x="507" y="77"/>
      <point x="429" y="69"/>
      <point x="344" y="69" type="qcurve" smooth="yes"/>
      <point x="261" y="69"/>
      <point x="183" y="77"/>
      <point x="132" y="112"/>
      <point x="111" y="191"/>
      <point x="111" y="265" type="qcurve" smooth="yes"/>
      <point x="111" y="485" type="line" smooth="yes"/>
      <point x="111" y="559"/>
      <point x="132" y="638"/>
      <point x="182" y="673"/>
      <point x="261" y="681"/>
    </contour>
    <contour>
      <point x="346" y="-6" type="qcurve" smooth="yes"/>
      <point x="441" y="-6"/>
      <point x="555" y="13"/>
      <point x="627" y="68"/>
      <point x="662" y="175"/>
      <point x="664" y="265" type="qcurve" smooth="yes"/>
      <point x="664" y="485" type="line" smooth="yes"/>
      <point x="662" y="575"/>
      <point x="627" y="682"/>
      <point x="555" y="737"/>
      <point x="440" y="756"/>
      <point x="344" y="756" type="qcurve" smooth="yes"/>
      <point x="249" y="756"/>
      <point x="135" y="737"/>
      <point x="63" y="682"/>
      <point x="28" y="575"/>
      <point x="26" y="485" type="qcurve" smooth="yes"/>
      <point x="26" y="265" type="line" smooth="yes"/>
      <point x="28" y="175"/>
      <point x="63" y="68"/>
      <point x="135" y="13"/>
      <point x="250" y="-6"/>
    </contour>
  </outline>
</glyph>
<glyph name="one" format="1">
  <advance width="690"/>
  <unicode hex="0031"/>
  <outline>
    <contour>
      <point x="448" y="750" type="line"/>
      <point x="325" y="750" type="line"/>
      <point x="118" y="525" type="line"/>
      <point x="171" y="474" type="line"/>
      <point x="363" y="685" type="line"/>
      <point x="363" y="0" type="line"/>
      <point x="448" y="0" type="line"/>
    </contour>
  </outline>
</glyph>
<glyph name="five" format="1">
  <advance width="690"/>
  <unicode hex="0035"/>
  <outline>
    <contour>
      <point x="166" y="675" type="line"/>
      <point x="591" y="675" type="line"/>
      <point x="591" y="750" type="line"/>
      <point x="81" y="750" type="line"/>
      <point x="81" y="370" type="line"/>
      <point x="166" y="370" type="line"/>
      <point x="170" y="392"/>
      <point x="195" y="420"/>
      <point x="232" y="434"/>
      <point x="273" y="439"/>
      <point x="298" y="439" type="qcurve" smooth="yes"/>
      <point x="312" y="439"/>
      <point x="325" y="438" type="qcurve" smooth="yes"/>
      <point x="346" y="438" type="line" smooth="yes"/>
      <point x="412" y="438"/>
      <point x="483" y="427"/>
      <point x="522" y="392"/>
      <point x="537" y="323"/>
      <point x="537" y="260" type="qcurve" smooth="yes"/>
      <point x="537" y="192"/>
      <point x="526" y="122"/>
      <point x="489" y="83"/>
      <point x="415" y="69"/>
      <point x="346" y="69" type="qcurve" smooth="yes"/>
      <point x="286" y="69"/>
      <point x="221" y="75"/>
      <point x="176" y="97"/>
      <point x="154" y="147"/>
      <point x="154" y="190" type="qcurve" smooth="yes"/>
      <point x="154" y="215" type="line"/>
      <point x="68" y="215" type="line"/>
      <point x="69" y="197" type="line" smooth="yes"/>
      <point x="73" y="128"/>
      <point x="104" y="48"/>
      <point x="166" y="8"/>
      <point x="263" y="-6"/>
      <point x="346" y="-6" type="qcurve" smooth="yes"/>
      <point x="438" y="-6"/>
      <point x="540" y="13"/>
      <point x="599" y="66"/>
      <point x="622" y="168"/>
      <point x="622" y="260" type="qcurve" smooth="yes"/>
      <point x="622" y="324"/>
      <point x="607" y="409"/>
      <point x="557" y="476"/>
      <point x="455" y="513"/>
      <point x="370" y="513" type="qcurve" smooth="yes"/>
      <point x="337" y="513"/>
      <point x="284" y="510"/>
      <point x="228" y="498"/>
      <point x="181" y="472"/>
      <point x="168" y="451" type="qcurve"/>
      <point x="166" y="451" type="line"/>
    </contour>
  </outline>
</glyph>
<glyph name="six" format="1">
  <advance width="690"/>
  <unicode hex="0036"/>
  <outline>
    <contour>
      <point x="363" y="389" type="qcurve" smooth="yes"/>
      <point x="427" y="389"/>
      <point x="494" y="378"/>
      <point x="527" y="346"/>
      <point x="538" y="287"/>
      <point x="538" y="229" type="qcurve" smooth="yes"/>
      <point x="538" y="171"/>
      <point x="529" y="115"/>
      <point x="493" y="82"/>
      <point x="418" y="69"/>
      <point x="345" y="69" type="qcurve" smooth="yes"/>
      <point x="275" y="69"/>
      <point x="200" y="83"/>
      <point x="164" y="122"/>
      <point x="152" y="192"/>
      <point x="152" y="259" type="qcurve" smooth="yes"/>
      <point x="152" y="305"/>
      <point x="172" y="357"/>
      <point x="218" y="382"/>
      <point x="294" y="389"/>
    </contour>
    <contour>
      <point x="67" y="259" type="line" smooth="yes"/>
      <point x="67" y="171"/>
      <point x="95" y="67"/>
      <point x="158" y="13"/>
      <point x="260" y="-6"/>
      <point x="345" y="-6" type="qcurve" smooth="yes"/>
      <point x="431" y="-6"/>
      <point x="533" y="12"/>
      <point x="596" y="61"/>
      <point x="623" y="152"/>
      <point x="623" y="229" type="qcurve" smooth="yes"/>
      <point x="623" y="309"/>
      <point x="594" y="402"/>
      <point x="532" y="448"/>
      <point x="431" y="464"/>
      <point x="345" y="464" type="qcurve" smooth="yes"/>
      <point x="260" y="464"/>
      <point x="168" y="430"/>
      <point x="154" y="395" type="qcurve"/>
      <point x="152" y="395" type="line"/>
      <point x="152" y="556" type="line" smooth="yes"/>
      <point x="153" y="602"/>
      <point x="175" y="653"/>
      <point x="220" y="676"/>
      <point x="285" y="681"/>
      <point x="349" y="681" type="qcurve" smooth="yes"/>
      <point x="402" y="681"/>
      <point x="458" y="677"/>
      <point x="499" y="659"/>
      <point x="521" y="618"/>
      <point x="521" y="581" type="qcurve" smooth="yes"/>
      <point x="521" y="560" type="line"/>
      <point x="606" y="560" type="line"/>
      <point x="606" y="584" type="line" smooth="yes"/>
      <point x="606" y="645"/>
      <point x="564" y="717"/>
      <point x="493" y="749"/>
      <point x="412" y="756"/>
      <point x="349" y="756" type="qcurve" smooth="yes"/>
      <point x="276" y="756"/>
      <point x="177" y="742"/>
      <point x="106" y="701"/>
      <point x="68" y="621"/>
      <point x="67" y="556" type="qcurve" smooth="yes"/>
    </contour>
  </outline>
</glyph>
<glyph name="seven" format="1">
  <advance width="690"/>
  <unicode hex="0037"/>
  <outline>
    <contour>
      <point x="610" y="750" type="line"/>
      <point x="63" y="750" type="line"/>
      <point x="63" y="680" type="line"/>
      <point x="540" y="680" type="line"/>
      <point x="146" y="0" type="line"/>
      <point x="246" y="0" type="line"/>
      <point x="610" y="643" type="line"/>
    </contour>
  </outline>
</glyph>
<glyph name="nine" format="1">
  <advance width="690"/>
  <unicode hex="0039"/>
  <outline>
    <contour>
      <point x="349" y="366" type="qcurve" smooth="yes"/>
      <point x="280" y="366"/>
      <point x="210" y="375"/>
      <point x="171" y="403"/>
      <point x="157" y="462"/>
      <point x="157" y="518" type="qcurve" smooth="yes"/>
      <point x="157" y="582"/>
      <point x="170" y="644"/>
      <point x="207" y="673"/>
      <point x="275" y="681"/>
      <point x="349" y="681" type="qcurve" smooth="yes"/>
      <point x="416" y="681"/>
      <point x="482" y="674"/>
      <point x="524" y="644"/>
      <point x="542" y="579"/>
      <point x="542" y="518" type="qcurve" smooth="yes"/>
      <point x="542" y="461"/>
      <point x="529" y="403"/>
      <point x="492" y="375"/>
      <point x="421" y="366"/>
    </contour>
    <contour>
      <point x="63" y="163" type="line" smooth="yes"/>
      <point x="63" y="103"/>
      <point x="102" y="33"/>
      <point x="173" y="2"/>
      <point x="268" y="-6"/>
      <point x="349" y="-6" type="qcurve" smooth="yes"/>
      <point x="441" y="-6"/>
      <point x="549" y="15"/>
      <point x="606" y="67"/>
      <point x="627" y="156"/>
      <point x="627" y="231" type="qcurve" smooth="yes"/>
      <point x="627" y="518" type="line" smooth="yes"/>
      <point x="627" y="596"/>
      <point x="599" y="689"/>
      <point x="537" y="738"/>
      <point x="435" y="756"/>
      <point x="349" y="756" type="qcurve" smooth="yes"/>
      <point x="262" y="756"/>
      <point x="159" y="738"/>
      <point x="98" y="689"/>
      <point x="72" y="597"/>
      <point x="72" y="518" type="qcurve" smooth="yes"/>
      <point x="72" y="442"/>
      <point x="100" y="353"/>
      <point x="163" y="307"/>
      <point x="264" y="291"/>
      <point x="349" y="291" type="qcurve" smooth="yes"/>
      <point x="379" y="291"/>
      <point x="434" y="295"/>
      <point x="487" y="308"/>
      <point x="530" y="336"/>
      <point x="540" y="358" type="qcurve"/>
      <point x="542" y="356" type="line"/>
      <point x="542" y="231" type="line" smooth="yes"/>
      <point x="542" y="171"/>
      <point x="526" y="107"/>
      <point x="485" y="77"/>
      <point x="417" y="69"/>
      <point x="349" y="69" type="qcurve" smooth="yes"/>
      <point x="280" y="69"/>
      <point x="207" y="75"/>
      <point x="165" y="93"/>
      <point x="148" y="130"/>
      <point x="148" y="163" type="qcurve" smooth="yes"/>
      <point x="148" y="191" type="line"/>
      <point x="63" y="191" type="line"/>
    </contour>
  </outline>
</glyph>
<glyph name="less" format="1">
  <advance width="584"/>
  <unicode hex="003C"/>
  <outline>
    <contour>
      <point x="534" y="484" type="line"/>
      <point x="50" y="277" type="line"/>
      <point x="50" y="207" type="line"/>
      <point x="534" y="0" type="line"/>
      <point x="534" y="80" type="line"/>
      <point x="139" y="242" type="line"/>
      <point x="534" y="404" type="line"/>
    </contour>
  </outline>
</glyph>
<glyph name="greater" format="1">
  <advance width="584"/>
  <unicode hex="003E"/>
  <outline>
    <contour>
      <point x="534" y="277" type="line"/>
      <point x="50" y="484" type="line"/>
      <point x="50" y="404" type="line"/>
      <point x="441" y="242" type="line"/>
      <point x="50" y="80" type="line"/>
      <point x="50" y="0" type="line"/>
      <point x="534" y="207" type="line"/>
    </contour>
  </outline>
</glyph>
<glyph name="A" format="1">
  <advance width="685"/>
  <unicode hex="0041"/>
  <outline>
    <contour>
      <point x="532" y="159" type="line"/>
      <point x="591" y="0" type="line"/>
      <point x="679" y="0" type="line"/>
      <point x="399" y="750" type="line"/>
      <point x="279" y="750" type="line"/>
      <point x="6" y="0" type="line"/>
      <point x="95" y="0" type="line"/>
      <point x="153" y="159" type="line"/>
    </contour>
    <contour>
      <point x="508" y="229" type="line"/>
      <point x="176" y="229" type="line"/>
      <point x="341" y="680" type="line"/>
    </contour>
  </outline>
</glyph>
<glyph name="B" format="1">
  <advance width="694"/>
  <unicode hex="0042"/>
  <outline>
    <contour>
      <point x="146" y="348" type="line"/>
      <point x="425" y="348" type="line" smooth="yes"/>
      <point x="504" y="348"/>
      <point x="552" y="281"/>
      <point x="552" y="201" type="qcurve" smooth="yes"/>
      <point x="552" y="120"/>
      <point x="492" y="75"/>
      <point x="415" y="75" type="qcurve" smooth="yes"/>
      <point x="146" y="75" type="line"/>
    </contour>
    <contour>
      <point x="460" y="0" type="line" smooth="yes"/>
      <point x="553" y="0"/>
      <point x="637" y="105"/>
      <point x="637" y="209" type="qcurve" smooth="yes"/>
      <point x="637" y="289"/>
      <point x="590" y="380"/>
      <point x="521" y="392" type="qcurve"/>
      <point x="521" y="394" type="line"/>
      <point x="576" y="412"/>
      <point x="615" y="487"/>
      <point x="615" y="552" type="qcurve" smooth="yes"/>
      <point x="615" y="657"/>
      <point x="542" y="750"/>
      <point x="441" y="750" type="qcurve" smooth="yes"/>
      <point x="61" y="750" type="line"/>
      <point x="61" y="0" type="line"/>
    </contour>
    <contour>
      <point x="146" y="675" type="line"/>
      <point x="402" y="675" type="line" smooth="yes"/>
      <point x="475" y="675"/>
      <point x="530" y="634"/>
      <point x="530" y="563" type="qcurve" smooth="yes"/>
      <point x="530" y="518"/>
      <point x="516" y="464"/>
      <point x="485" y="435"/>
      <point x="434" y="423"/>
      <point x="393" y="423" type="qcurve" smooth="yes"/>
      <point x="146" y="423" type="line"/>
    </contour>
  </outline>
</glyph>
<glyph name="D" format="1">
  <advance width="734"/>
  <unicode hex="0044"/>
  <outline>
    <contour>
      <point x="64" y="0" type="line"/>
      <point x="449" y="0" type="line" smooth="yes"/>
      <point x="528" y="0"/>
      <point x="626" y="62"/>
      <point x="673" y="154"/>
      <point x="686" y="242"/>
      <point x="686" y="282" type="qcurve" smooth="yes"/>
      <point x="686" y="461" type="line" smooth="yes"/>
      <point x="686" y="558"/>
      <point x="635" y="679"/>
      <point x="556" y="735"/>
      <point x="475" y="750"/>
      <point x="429" y="750" type="qcurve" smooth="yes"/>
      <point x="64" y="750" type="line"/>
    </contour>
    <contour>
      <point x="149" y="75" type="line"/>
      <point x="149" y="675" type="line"/>
      <point x="443" y="675" type="line" smooth="yes"/>
      <point x="493" y="675"/>
      <point x="557" y="634"/>
      <point x="590" y="574"/>
      <point x="601" y="516"/>
      <point x="601" y="494" type="qcurve" smooth="yes"/>
      <point x="601" y="297" type="line" smooth="yes"/>
      <point x="600" y="241"/>
      <point x="587" y="163"/>
      <point x="552" y="106"/>
      <point x="484" y="75"/>
      <point x="429" y="75" type="qcurve" smooth="yes"/>
    </contour>
  </outline>
</glyph>
<glyph name="F" format="1">
  <advance width="549"/>
  <unicode hex="0046"/>
  <outline>
    <contour>
      <point x="150" y="675" type="line"/>
      <point x="525" y="675" type="line"/>
      <point x="525" y="750" type="line"/>
      <point x="65" y="750" type="line"/>
      <point x="65" y="0" type="line"/>
      <point x="150" y="0" type="line"/>
      <point x="150" y="343" type="line"/>
      <point x="515" y="343" type="line"/>
      <point x="515" y="413" type="line"/>
      <point x="150" y="413" type="line"/>
    </contour>
  </outline>
</glyph>
<glyph name="G" format="1">
  <advance width="696"/>
  <unicode hex="0047"/>
  <outline>
    <contour>
      <point x="339" y="375" type="line"/>
      <point x="339" y="300" type="line"/>
      <point x="578" y="300" type="line"/>
      <point x="578" y="207" type="line" smooth="yes"/>
      <point x="578" y="160"/>
      <point x="563" y="107"/>
      <point x="524" y="79"/>
      <point x="457" y="69"/>
      <point x="397" y="69" type="qcurve" smooth="yes"/>
      <point x="317" y="69" type="line" smooth="yes"/>
      <point x="262" y="69"/>
      <point x="192" y="84"/>
      <point x="149" y="122"/>
      <point x="129" y="190"/>
      <point x="129" y="244" type="qcurve" smooth="yes"/>
      <point x="129" y="485" type="line" smooth="yes"/>
      <point x="129" y="551"/>
      <point x="143" y="624"/>
      <point x="180" y="665"/>
      <point x="252" y="681"/>
      <point x="315" y="681" type="qcurve" smooth="yes"/>
      <point x="420" y="681" type="line" smooth="yes"/>
      <point x="512" y="681"/>
      <point x="544" y="660" type="qcurve" smooth="yes"/>
      <point x="561" y="648"/>
      <point x="576" y="607"/>
      <point x="576" y="574" type="qcurve" smooth="yes"/>
      <point x="576" y="531" type="line"/>
      <point x="661" y="531" type="line"/>
      <point x="661" y="589" type="line" smooth="yes"/>
      <point x="661" y="675"/>
      <point x="552" y="756"/>
      <point x="461" y="756" type="qcurve" smooth="yes"/>
      <point x="264" y="756" type="line" smooth="yes"/>
      <point x="213" y="756"/>
      <point x="134" y="730"/>
      <point x="76" y="671"/>
      <point x="44" y="569"/>
      <point x="44" y="495" type="qcurve" smooth="yes"/>
      <point x="44" y="263" type="line" smooth="yes"/>
      <point x="44" y="177"/>
      <point x="78" y="71"/>
      <point x="146" y="14"/>
      <point x="251" y="-6"/>
      <point x="332" y="-6" type="qcurve" smooth="yes"/>
      <point x="414" y="-6" type="line" smooth="yes"/>
      <point x="481" y="-6"/>
      <point x="573" y="14"/>
      <point x="633" y="61"/>
      <point x="663" y="146"/>
      <point x="663" y="212" type="qcurve" smooth="yes"/>
      <point x="663" y="375" type="line"/>
    </contour>
  </outline>
</glyph>
<glyph name="H" format="1">
  <advance width="750"/>
  <unicode hex="0048"/>
  <outline>
    <contour>
      <point x="680" y="750" type="line"/>
      <point x="595" y="750" type="line"/>
      <point x="595" y="420" type="line"/>
      <point x="156" y="420" type="line"/>
      <point x="156" y="750" type="line"/>
      <point x="71" y="750" type="line"/>
      <point x="71" y="0" type="line"/>
      <point x="156" y="0" type="line"/>
      <point x="156" y="345" type="line"/>
      <point x="595" y="345" type="line"/>
      <point x="595" y="0" type="line"/>
      <point x="680" y="0" type="line"/>
    </contour>
  </outline>
</glyph>
<glyph name="J" format="1">
  <advance width="565"/>
  <unicode hex="004A"/>
  <outline>
    <contour>
      <point x="409" y="750" type="line"/>
      <point x="408" y="169" type="line" smooth="yes"/>
      <point x="408" y="133"/>
      <point x="382" y="92"/>
      <point x="338" y="73"/>
      <point x="289" y="69"/>
      <point x="250" y="69" type="qcurve" smooth="yes"/>
      <point x="204" y="69"/>
      <point x="151" y="80"/>
      <point x="124" y="106"/>
      <point x="114" y="150"/>
      <point x="114" y="188" type="qcurve" smooth="yes"/>
      <point x="114" y="273" type="line"/>
      <point x="29" y="273" type="line"/>
      <point x="29" y="163" type="line" smooth="yes"/>
      <point x="29" y="110"/>
      <point x="65" y="42"/>
      <point x="128" y="7"/>
      <point x="210" y="-6"/>
      <point x="265" y="-6" type="qcurve" smooth="yes"/>
      <point x="319" y="-6"/>
      <point x="401" y="11"/>
      <point x="461" y="53"/>
      <point x="493" y="126"/>
      <point x="493" y="181" type="qcurve" smooth="yes"/>
      <point x="493" y="750" type="line"/>
    </contour>
  </outline>
</glyph>
<glyph name="K" format="1">
  <advance width="678"/>
  <unicode hex="004B"/>
  <outline>
    <contour>
      <point x="157" y="750" type="line"/>
      <point x="72" y="750" type="line"/>
      <point x="72" y="0" type="line"/>
      <point x="157" y="0" type="line"/>
      <point x="157" y="347" type="line"/>
      <point x="231" y="347" type="line"/>
      <point x="574" y="0" type="line"/>
      <point x="689" y="0" type="line"/>
      <point x="305" y="387" type="line"/>
      <point x="648" y="750" type="line"/>
      <point x="537" y="750" type="line"/>
      <point x="231" y="422" type="line"/>
      <point x="157" y="422" type="line"/>
    </contour>
  </outline>
</glyph>
<glyph name="M" format="1">
  <advance width="965"/>
  <unicode hex="004D"/>
  <outline>
    <contour>
      <point x="808" y="686" type="line"/>
      <point x="810" y="686" type="line"/>
      <point x="810" y="0" type="line"/>
      <point x="895" y="0" type="line"/>
      <point x="895" y="750" type="line"/>
      <point x="748" y="750" type="line"/>
      <point x="482" y="108" type="line"/>
      <point x="217" y="750" type="line"/>
      <point x="70" y="750" type="line"/>
      <point x="70" y="0" type="line"/>
      <point x="155" y="0" type="line"/>
      <point x="155" y="686" type="line"/>
      <point x="157" y="686" type="line"/>
      <point x="441" y="0" type="line"/>
      <point x="525" y="0" type="line"/>
    </contour>
  </outline>
</glyph>
<glyph name="N" format="1">
  <advance width="783"/>
  <unicode hex="004E"/>
  <outline>
    <contour>
      <point x="715" y="750" type="line"/>
      <point x="630" y="750" type="line"/>
      <point x="630" y="65" type="line"/>
      <point x="628" y="65" type="line"/>
      <point x="208" y="750" type="line"/>
      <point x="68" y="750" type="line"/>
      <point x="68" y="0" type="line"/>
      <point x="153" y="0" type="line"/>
      <point x="153" y="680" type="line"/>
      <point x="155" y="680" type="line"/>
      <point x="576" y="0" type="line"/>
      <point x="715" y="0" type="line"/>
    </contour>
  </outline>
</glyph>
<glyph name="P" format="1">
  <advance width="661"/>
  <unicode hex="0050"/>
  <outline>
    <contour>
      <point x="59" y="0" type="line"/>
      <point x="144" y="0" type="line"/>
      <point x="144" y="292" type="line"/>
      <point x="437" y="292" type="line" smooth="yes"/>
      <point x="501" y="292"/>
      <point x="578" y="341"/>
      <point x="612" y="415"/>
      <point x="620" y="484"/>
      <point x="620" y="523" type="qcurve" smooth="yes"/>
      <point x="620" y="575"/>
      <point x="604" y="656"/>
      <point x="564" y="717"/>
      <point x="494" y="750"/>
      <point x="441" y="750" type="qcurve" smooth="yes"/>
      <point x="59" y="750" type="line"/>
    </contour>
    <contour>
      <point x="404" y="675" type="line" smooth="yes"/>
      <point x="446" y="675"/>
      <point x="495" y="664"/>
      <point x="523" y="631"/>
      <point x="535" y="568"/>
      <point x="535" y="512" type="qcurve" smooth="yes"/>
      <point x="535" y="459"/>
      <point x="514" y="400"/>
      <point x="473" y="373"/>
      <point x="417" y="367"/>
      <point x="364" y="367" type="qcurve" smooth="yes"/>
      <point x="144" y="367" type="line"/>
      <point x="144" y="675" type="line"/>
    </contour>
  </outline>
</glyph>
<glyph name="Q" format="1">
  <advance width="737"/>
  <unicode hex="0051"/>
  <outline>
    <contour>
      <point x="734" y="92" type="line"/>
      <point x="671" y="134" type="line"/>
      <point x="681" y="163"/>
      <point x="687" y="230"/>
      <point x="687" y="281" type="qcurve" smooth="yes"/>
      <point x="687" y="493" type="line" smooth="yes"/>
      <point x="687" y="567"/>
      <point x="659" y="667"/>
      <point x="598" y="728"/>
      <point x="499" y="756"/>
      <point x="426" y="756" type="qcurve" smooth="yes"/>
      <point x="309" y="756" type="line"/>
      <point x="168" y="752"/>
      <point x="50" y="632"/>
      <point x="50" y="493" type="qcurve" smooth="yes"/>
      <point x="50" y="281" type="line" smooth="yes"/>
      <point x="50" y="201"/>
      <point x="72" y="95"/>
      <point x="128" y="27"/>
      <point x="230" y="-6"/>
      <point x="309" y="-6" type="qcurve" smooth="yes"/>
      <point x="426" y="-6" type="line" smooth="yes"/>
      <point x="500" y="-6"/>
      <point x="608" y="29"/>
      <point x="643" y="72" type="qcurve"/>
      <point x="699" y="34" type="line"/>
    </contour>
    <contour>
      <point x="380" y="326" type="line"/>
      <point x="341" y="268" type="line"/>
      <point x="575" y="116" type="line"/>
      <point x="558" y="91"/>
      <point x="486" y="69"/>
      <point x="443" y="69" type="qcurve" smooth="yes"/>
      <point x="300" y="69" type="line" smooth="yes"/>
      <point x="250" y="69"/>
      <point x="188" y="85"/>
      <point x="151" y="126"/>
      <point x="135" y="203"/>
      <point x="135" y="266" type="qcurve" smooth="yes"/>
      <point x="135" y="510" type="line" smooth="yes"/>
      <point x="135" y="606"/>
      <point x="206" y="681"/>
      <point x="300" y="681" type="qcurve" smooth="yes"/>
      <point x="443" y="681" type="line" smooth="yes"/>
      <point x="492" y="681"/>
      <point x="555" y="658"/>
      <point x="589" y="616"/>
      <point x="602" y="560"/>
      <point x="602" y="522" type="qcurve" smooth="yes"/>
      <point x="602" y="243" type="line" smooth="yes"/>
      <point x="602" y="224"/>
      <point x="600" y="194"/>
      <point x="596" y="184" type="qcurve"/>
    </contour>
  </outline>
</glyph>
<glyph name="R" format="1">
  <advance width="701"/>
  <unicode hex="0052"/>
  <outline>
    <contour>
      <point x="154" y="300" type="line"/>
      <point x="427" y="300" type="line" smooth="yes"/>
      <point x="501" y="300"/>
      <point x="553" y="234"/>
      <point x="553" y="159" type="qcurve" smooth="yes"/>
      <point x="553" y="0" type="line"/>
      <point x="638" y="0" type="line"/>
      <point x="638" y="199" type="line" smooth="yes"/>
      <point x="638" y="261"/>
      <point x="579" y="330"/>
      <point x="517" y="334" type="qcurve"/>
      <point x="517" y="336" type="line"/>
      <point x="560" y="341"/>
      <point x="613" y="375"/>
      <point x="640" y="425"/>
      <point x="648" y="488"/>
      <point x="648" y="534" type="qcurve" smooth="yes"/>
      <point x="648" y="658"/>
      <point x="541" y="750"/>
      <point x="415" y="750" type="qcurve" smooth="yes"/>
      <point x="69" y="750" type="line"/>
      <point x="69" y="0" type="line"/>
      <point x="154" y="0" type="line"/>
    </contour>
    <contour>
      <point x="154" y="375" type="line"/>
      <point x="154" y="675" type="line"/>
      <point x="416" y="675" type="line" smooth="yes"/>
      <point x="466" y="675"/>
      <point x="525" y="661"/>
      <point x="554" y="630"/>
      <point x="563" y="583"/>
      <point x="563" y="543" type="qcurve" smooth="yes"/>
      <point x="563" y="492"/>
      <point x="553" y="432"/>
      <point x="524" y="395"/>
      <point x="466" y="377"/>
      <point x="416" y="375" type="qcurve" smooth="yes"/>
    </contour>
  </outline>
</glyph>
<glyph name="T" format="1">
  <advance width="579"/>
  <unicode hex="0054"/>
  <outline>
    <contour>
      <point x="332" y="675" type="line"/>
      <point x="575" y="675" type="line"/>
      <point x="575" y="750" type="line"/>
      <point x="4" y="750" type="line"/>
      <point x="4" y="675" type="line"/>
      <point x="247" y="675" type="line"/>
      <point x="247" y="0" type="line"/>
      <point x="332" y="0" type="line"/>
    </contour>
  </outline>
</glyph>
<glyph name="U" format="1">
  <advance width="737"/>
  <unicode hex="0055"/>
  <outline>
    <contour>
      <point x="581" y="750" type="line"/>
      <point x="581" y="210" type="line" smooth="yes"/>
      <point x="581" y="158"/>
      <point x="558" y="101"/>
      <point x="509" y="75"/>
      <point x="439" y="69"/>
      <point x="369" y="69" type="qcurve" smooth="yes"/>
      <point x="296" y="69"/>
      <point x="216" y="79"/>
      <point x="173" y="108"/>
      <point x="157" y="162"/>
      <point x="157" y="210" type="qcurve" smooth="yes"/>
      <point x="157" y="750" type="line"/>
      <point x="72" y="750" type="line"/>
      <point x="72" y="210" type="line" smooth="yes"/>
      <point x="72" y="134"/>
      <point x="116" y="44"/>
      <point x="195" y="4"/>
      <point x="291" y="-6"/>
      <point x="369" y="-6" type="qcurve" smooth="yes"/>
      <point x="446" y="-6"/>
      <point x="548" y="7"/>
      <point x="625" y="49"/>
      <point x="666" y="137"/>
      <point x="666" y="210" type="qcurve" smooth="yes"/>
      <point x="666" y="750" type="line"/>
    </contour>
  </outline>
</glyph>
<glyph name="W" format="1">
  <advance width="1123"/>
  <unicode hex="0057"/>
  <outline>
    <contour>
      <point x="1121" y="750" type="line"/>
      <point x="1033" y="750" type="line"/>
      <point x="824" y="65" type="line"/>
      <point x="822" y="65" type="line"/>
      <point x="622" y="750" type="line"/>
      <point x="497" y="750" type="line"/>
      <point x="295" y="65" type="line"/>
      <point x="293" y="65" type="line"/>
      <point x="89" y="750" type="line"/>
      <point x="2" y="750" type="line"/>
      <point x="232" y="0" type="line"/>
      <point x="359" y="0" type="line"/>
      <point x="558" y="675" type="line"/>
      <point x="560" y="675" type="line"/>
      <point x="756" y="0" type="line"/>
      <point x="885" y="0" type="line"/>
    </contour>
  </outline>
</glyph>
<glyph name="X" format="1">
  <advance width="653"/>
  <unicode hex="0058"/>
  <outline>
    <contour>
      <point x="641" y="750" type="line"/>
      <point x="541" y="750" type="line"/>
      <point x="331" y="429" type="line"/>
      <point x="118" y="750" type="line"/>
      <point x="16" y="750" type="line"/>
      <point x="262" y="388" type="line"/>
      <point x="-6" y="0" type="line"/>
      <point x="98" y="0" type="line"/>
      <point x="331" y="345" type="line"/>
      <point x="559" y="0" type="line"/>
      <point x="659" y="0" type="line"/>
      <point x="401" y="388" type="line"/>
    </contour>
  </outline>
</glyph>
<glyph name="bracketleft" format="1">
  <advance width="311"/>
  <unicode hex="005B"/>
  <outline>
    <contour>
      <point x="55" y="756" type="line"/>
      <point x="55" y="-150" type="line"/>
      <point x="249" y="-150" type="line"/>
      <point x="249" y="-75" type="line"/>
      <point x="140" y="-75" type="line"/>
      <point x="140" y="681" type="line"/>
      <point x="249" y="681" type="line"/>
      <point x="249" y="756" type="line"/>
    </contour>
  </outline>
</glyph>
<glyph name="backslash" format="1">
  <advance width="278"/>
  <unicode hex="005C"/>
  <outline>
    <contour>
      <point x="237" y="-113" type="line"/>
      <point x="328" y="-113" type="line"/>
      <point x="43" y="750" type="line"/>
      <point x="-50" y="750" type="line"/>
    </contour>
  </outline>
</glyph>
<glyph name="i" format="1">
  <advance width="215"/>
  <unicode hex="0069"/>
  <outline>
    <contour>
      <point x="147" y="525" type="line"/>
      <point x="68" y="525" type="line"/>
      <point x="68" y="0" type="line"/>
      <point x="147" y="0" type="line"/>
    </contour>
    <contour>
      <point x="147" y="750" type="line"/>
      <point x="68" y="750" type="line"/>
      <point x="68" y="663" type="line"/>
      <point x="147" y="663" type="line"/>
    </contour>
  </outline>
</glyph>
<glyph name="j" format="1">
  <advance width="209"/>
  <unicode hex="006A"/>
  <outline>
    <contour>
      <point x="147" y="525" type="line"/>
      <point x="68" y="525" type="line"/>
      <point x="68" y="-37" type="line" smooth="yes"/>
      <point x="68" y="-95"/>
      <point x="47" y="-144"/>
      <point x="11" y="-144" type="qcurve" smooth="yes"/>
      <point x="10" y="-144"/>
      <point x="3" y="-144" type="qcurve" smooth="yes"/>
      <point x="-4" y="-143"/>
      <point x="-5" y="-143" type="qcurve" smooth="yes"/>
      <point x="-5" y="-204" type="line"/>
      <point x="17" y="-209"/>
      <point x="34" y="-209" type="qcurve" smooth="yes"/>
      <point x="70" y="-209"/>
      <point x="114" y="-187"/>
      <point x="137" y="-148"/>
      <point x="146" y="-99"/>
      <point x="147" y="-63" type="qcurve" smooth="yes"/>
    </contour>
    <contour>
      <point x="147" y="750" type="line"/>
      <point x="68" y="750" type="line"/>
      <point x="68" y="663" type="line"/>
      <point x="147" y="663" type="line"/>
    </contour>
  </outline>
</glyph>
<glyph name="o" format="1">
  <advance width="570"/>
  <unicode hex="006F"/>
  <outline>
    <contour>
      <point x="52" y="262" type="qcurve" smooth="yes"/>
      <point x="52" y="175"/>
      <point x="71" y="73"/>
      <point x="120" y="17"/>
      <point x="209" y="-6"/>
      <point x="285" y="-6" type="qcurve" smooth="yes"/>
      <point x="361" y="-6"/>
      <point x="450" y="16"/>
      <point x="499" y="74"/>
      <point x="518" y="175"/>
      <point x="518" y="262" type="qcurve" smooth="yes"/>
      <point x="518" y="349"/>
      <point x="499" y="451"/>
      <point x="450" y="508"/>
      <point x="361" y="531"/>
      <point x="285" y="531" type="qcurve" smooth="yes"/>
      <point x="209" y="531"/>
      <point x="120" y="508"/>
      <point x="71" y="451"/>
      <point x="52" y="349"/>
    </contour>
    <contour>
      <point x="134" y="262" type="qcurve" smooth="yes"/>
      <point x="134" y="337"/>
      <point x="143" y="413"/>
      <point x="171" y="453"/>
      <point x="229" y="467"/>
      <point x="285" y="467" type="qcurve" smooth="yes"/>
      <point x="341" y="467"/>
      <point x="399" y="453"/>
      <point x="428" y="413"/>
      <point x="436" y="337"/>
      <point x="436" y="262" type="qcurve" smooth="yes"/>
      <point x="436" y="187"/>
      <point x="428" y="112"/>
      <point x="399" y="72"/>
      <point x="341" y="58"/>
      <point x="285" y="58" type="qcurve" smooth="yes"/>
      <point x="229" y="58"/>
      <point x="171" y="72"/>
      <point x="143" y="112"/>
      <point x="134" y="187"/>
    </contour>
  </outline>
</glyph>
<glyph name="w" format="1">
  <advance width="754"/>
  <unicode hex="0077"/>
  <outline>
    <contour>
      <point x="751" y="525" type="line"/>
      <point x="669" y="525" type="line"/>
      <point x="550" y="55" type="line"/>
      <point x="548" y="55" type="line"/>
      <point x="434" y="525" type="line"/>
      <point x="321" y="525" type="line"/>
      <point x="206" y="55" type="line"/>
      <point x="204" y="55" type="line"/>
      <point x="85" y="525" type="line"/>
      <point x="4" y="525" type="line"/>
      <point x="146" y="0" type="line"/>
      <point x="262" y="0" type="line"/>
      <point x="375" y="470" type="line"/>
      <point x="377" y="470" type="line"/>
      <point x="489" y="0" type="line"/>
      <point x="604" y="0" type="line"/>
    </contour>
  </outline>
</glyph>
<glyph name="x" format="1">
  <advance width="454"/>
  <unicode hex="0078"/>
  <outline>
    <contour>
      <point x="438" y="525" type="line"/>
      <point x="346" y="525" type="line"/>
      <point x="227" y="333" type="line"/>
      <point x="105" y="525" type="line"/>
      <point x="16" y="525" type="line"/>
      <point x="186" y="274" type="line"/>
      <point x="-4" y="0" type="line"/>
      <point x="91" y="0" type="line"/>
      <point x="227" y="212" type="line"/>
      <point x="363" y="0" type="line"/>
      <point x="458" y="0" type="line"/>
      <point x="271" y="274" type="line"/>
    </contour>
  </outline>
</glyph>
<glyph name="braceleft" format="1">
  <advance width="334"/>
  <unicode hex="007B"/>
  <outline>
    <contour>
      <point x="48" y="266" type="line"/>
      <point x="96" y="260"/>
      <point x="126" y="197"/>
      <point x="126" y="133" type="qcurve" smooth="yes"/>
      <point x="126" y="-31" type="line" smooth="yes"/>
      <point x="126" y="-57"/>
      <point x="143" y="-101"/>
      <point x="170" y="-133"/>
      <point x="198" y="-150"/>
      <point x="208" y="-150" type="qcurve" smooth="yes"/>
      <point x="291" y="-150" type="line"/>
      <point x="291" y="-75" type="line"/>
      <point x="247" y="-75" type="line" smooth="yes"/>
      <point x="227" y="-75"/>
      <point x="211" y="-45"/>
      <point x="211" y="-13" type="qcurve" smooth="yes"/>
      <point x="211" y="149" type="line" smooth="yes"/>
      <point x="211" y="184"/>
      <point x="194" y="239"/>
      <point x="171" y="275"/>
      <point x="151" y="294"/>
      <point x="140" y="302" type="qcurve" smooth="yes"/>
      <point x="139" y="303" type="line"/>
      <point x="147" y="308"/>
      <point x="168" y="327"/>
      <point x="193" y="365"/>
      <point x="211" y="421"/>
      <point x="211" y="457" type="qcurve" smooth="yes"/>
      <point x="211" y="620" type="line" smooth="yes"/>
      <point x="211" y="651"/>
      <point x="226" y="681"/>
      <point x="247" y="681" type="qcurve" smooth="yes"/>
      <point x="291" y="681" type="line"/>
      <point x="291" y="756" type="line"/>
      <point x="208" y="756" type="line" smooth="yes"/>
      <point x="198" y="756"/>
      <point x="170" y="739"/>
      <point x="143" y="706"/>
      <point x="126" y="662"/>
      <point x="126" y="637" type="qcurve" smooth="yes"/>
      <point x="126" y="473" type="line" smooth="yes"/>
      <point x="126" y="408"/>
      <point x="96" y="347"/>
      <point x="48" y="341" type="qcurve"/>
    </contour>
  </outline>
</glyph>
<glyph name="braceright" format="1">
  <advance width="334"/>
  <unicode hex="007D"/>
  <outline>
    <contour>
      <point x="286" y="340" type="line"/>
      <point x="239" y="346"/>
      <point x="208" y="409"/>
      <point x="208" y="473" type="qcurve" smooth="yes"/>
      <point x="208" y="637" type="line" smooth="yes"/>
      <point x="208" y="663"/>
      <point x="191" y="707"/>
      <point x="165" y="739"/>
      <point x="136" y="756"/>
      <point x="126" y="756" type="qcurve" smooth="yes"/>
      <point x="43" y="756" type="line"/>
      <point x="43" y="681" type="line"/>
      <point x="87" y="681" type="line" smooth="yes"/>
      <point x="108" y="681"/>
      <point x="123" y="651"/>
      <point x="123" y="619" type="qcurve" smooth="yes"/>
      <point x="123" y="457" type="line" smooth="yes"/>
      <point x="123" y="422"/>
      <point x="140" y="368"/>
      <point x="164" y="331"/>
      <point x="183" y="312"/>
      <point x="194" y="304" type="qcurve" smooth="yes"/>
      <point x="195" y="303" type="line"/>
      <point x="187" y="298"/>
      <point x="167" y="279"/>
      <point x="141" y="241"/>
      <point x="123" y="185"/>
      <point x="123" y="149" type="qcurve" smooth="yes"/>
      <point x="123" y="-14" type="line" smooth="yes"/>
      <point x="123" y="-45"/>
      <point x="108" y="-75"/>
      <point x="87" y="-75" type="qcurve" smooth="yes"/>
      <point x="43" y="-75" type="line"/>
      <point x="43" y="-150" type="line"/>
      <point x="126" y="-150" type="line" smooth="yes"/>
      <point x="136" y="-150"/>
      <point x="165" y="-133"/>
      <point x="191" y="-100"/>
      <point x="208" y="-56"/>
      <point x="208" y="-31" type="qcurve" smooth="yes"/>
      <point x="208" y="133" type="line" smooth="yes"/>
      <point x="208" y="198"/>
      <point x="238" y="259"/>
      <point x="286" y="265" type="qcurve"/>
    </contour>
  </outline>
</glyph>
<glyph name="exclamdown" format="1">
  <advance width="270"/>
  <unicode hex="00A1"/>
  <outline>
    <contour>
      <point x="177" y="525" type="line"/>
      <point x="88" y="525" type="line"/>
      <point x="88" y="423" type="line"/>
      <point x="177" y="423" type="line"/>
    </contour>
    <contour>
      <point x="88" y="-225" type="line"/>
      <point x="177" y="-225" type="line"/>
      <point x="169" y="318" type="line"/>
      <point x="96" y="318" type="line"/>
    </contour>
  </outline>
</glyph>
<glyph name="cent" format="1">
  <advance width="690"/>
  <unicode hex="00A2"/>
  <outline>
    <contour>
      <point x="300" y="142" type="line"/>
      <point x="260" y="144"/>
      <point x="214" y="167"/>
      <point x="191" y="214"/>
      <point x="184" y="286"/>
      <point x="184" y="348" type="qcurve" smooth="yes"/>
      <point x="184" y="410"/>
      <point x="189" y="474"/>
      <point x="210" y="522"/>
      <point x="257" y="547"/>
      <point x="300" y="549" type="qcurve"/>
    </contour>
    <contour>
      <point x="300" y="687" type="line"/>
      <point x="300" y="614" type="line"/>
      <point x="234" y="612"/>
      <point x="152" y="573"/>
      <point x="112" y="504"/>
      <point x="99" y="413"/>
      <point x="99" y="348" type="qcurve" smooth="yes"/>
      <point x="99" y="284"/>
      <point x="112" y="192"/>
      <point x="152" y="119"/>
      <point x="234" y="77"/>
      <point x="300" y="77" type="qcurve"/>
      <point x="300" y="-6" type="line"/>
      <point x="365" y="-6" type="line"/>
      <point x="365" y="77" type="line"/>
      <point x="466" y="77"/>
      <point x="557" y="152"/>
      <point x="559" y="244" type="qcurve" smooth="yes"/>
      <point x="559" y="273" type="line"/>
      <point x="479" y="273" type="line"/>
      <point x="479" y="244" type="line" smooth="yes"/>
      <point x="478" y="182"/>
      <point x="427" y="142"/>
      <point x="365" y="142" type="qcurve"/>
      <point x="365" y="549" type="line"/>
      <point x="423" y="547"/>
      <point x="469" y="507"/>
      <point x="469" y="456" type="qcurve"/>
      <point x="468" y="447" type="line" smooth="yes"/>
      <point x="468" y="442"/>
      <point x="468" y="437" type="qcurve"/>
      <point x="548" y="437" type="line"/>
      <point x="548" y="488"/>
      <point x="521" y="557"/>
      <point x="473" y="596"/>
      <point x="407" y="613"/>
      <point x="365" y="614" type="qcurve"/>
      <point x="365" y="687" type="line"/>
    </contour>
  </outline>
</glyph>
<glyph name="sterling" format="1">
  <advance width="690"/>
  <unicode hex="00A3"/>
  <outline>
    <contour>
      <point x="442" y="363" type="line"/>
      <point x="229" y="363" type="line"/>
      <point x="229" y="531" type="line" smooth="yes"/>
      <point x="231" y="589"/>
      <point x="241" y="644"/>
      <point x="273" y="672"/>
      <point x="337" y="681"/>
      <point x="403" y="681" type="qcurve" smooth="yes"/>
      <point x="456" y="681"/>
      <point x="515" y="671"/>
      <point x="547" y="642"/>
      <point x="559" y="590"/>
      <point x="559" y="542" type="qcurve" smooth="yes"/>
      <point x="559" y="526" type="line"/>
      <point x="639" y="526" type="line"/>
      <point x="639" y="542" type="line" smooth="yes"/>
      <point x="639" y="610"/>
      <point x="616" y="692"/>
      <point x="560" y="738"/>
      <point x="464" y="756"/>
      <point x="385" y="756" type="qcurve" smooth="yes"/>
      <point x="318" y="756"/>
      <point x="232" y="740"/>
      <point x="173" y="693"/>
      <point x="144" y="604"/>
      <point x="144" y="531" type="qcurve" smooth="yes"/>
      <point x="144" y="363" type="line"/>
      <point x="52" y="363" type="line"/>
      <point x="52" y="293" type="line"/>
      <point x="144" y="293" type="line"/>
      <point x="144" y="231" type="line" smooth="yes"/>
      <point x="144" y="193"/>
      <point x="140" y="141"/>
      <point x="126" y="97"/>
      <point x="96" y="68"/>
      <point x="71" y="64" type="qcurve"/>
      <point x="71" y="0" type="line"/>
      <point x="653" y="0" type="line"/>
      <point x="653" y="73" type="line"/>
      <point x="169" y="64" type="line"/>
      <point x="167" y="66" type="line"/>
      <point x="207" y="91"/>
      <point x="229" y="159"/>
      <point x="229" y="231" type="qcurve" smooth="yes"/>
      <point x="229" y="293" type="line"/>
      <point x="442" y="293" type="line"/>
    </contour>
  </outline>
</glyph>
<glyph name="yen" format="1">
  <advance width="690"/>
  <unicode hex="00A5"/>
  <outline>
    <contour>
      <point x="505" y="512" type="line"/>
      <point x="652" y="750" type="line"/>
      <point x="554" y="750" type="line"/>
      <point x="347" y="399" type="line"/>
      <point x="137" y="750" type="line"/>
      <point x="38" y="750" type="line"/>
      <point x="181" y="512" type="line"/>
      <point x="83" y="512" type="line"/>
      <point x="83" y="442" type="line"/>
      <point x="222" y="442" type="line"/>
      <point x="289" y="330" type="line"/>
      <point x="83" y="330" type="line"/>
      <point x="83" y="260" type="line"/>
      <point x="299" y="260" type="line"/>
      <point x="299" y="0" type="line"/>
      <point x="384" y="0" type="line"/>
      <point x="384" y="260" type="line"/>
      <point x="607" y="260" type="line"/>
      <point x="607" y="330" type="line"/>
      <point x="394" y="330" type="line"/>
      <point x="462" y="442" type="line"/>
      <point x="607" y="442" type="line"/>
      <point x="607" y="512" type="line"/>
    </contour>
  </outline>
</glyph>
<glyph name="section" format="1">
  <advance width="690"/>
  <unicode hex="00A7"/>
  <outline>
    <contour>
      <point x="253" y="207" type="line"/>
      <point x="245" y="209" type="line" smooth="yes"/>
      <point x="195" y="223"/>
      <point x="159" y="255"/>
      <point x="159" y="304" type="qcurve" smooth="yes"/>
      <point x="159" y="360"/>
      <point x="189" y="408"/>
      <point x="223" y="408" type="qcurve" smooth="yes"/>
      <point x="248" y="408"/>
      <point x="291" y="394" type="qcurve" smooth="yes"/>
      <point x="430" y="353" type="line"/>
      <point x="442" y="350" type="line" smooth="yes"/>
      <point x="486" y="337"/>
      <point x="529" y="306"/>
      <point x="529" y="268" type="qcurve" smooth="yes"/>
      <point x="529" y="208"/>
      <point x="498" y="155"/>
      <point x="461" y="155" type="qcurve" smooth="yes"/>
      <point x="437" y="155"/>
      <point x="399" y="166" type="qcurve" smooth="yes"/>
    </contour>
    <contour>
      <point x="416" y="85" type="line"/>
      <point x="430" y="82" type="line" smooth="yes"/>
      <point x="491" y="66"/>
      <point x="531" y="31"/>
      <point x="531" y="-26" type="qcurve" smooth="yes"/>
      <point x="531" y="-69"/>
      <point x="510" y="-118"/>
      <point x="467" y="-141"/>
      <point x="404" y="-148"/>
      <point x="350" y="-148" type="qcurve" smooth="yes"/>
      <point x="280" y="-148"/>
      <point x="205" y="-135"/>
      <point x="172" y="-106"/>
      <point x="164" y="-60"/>
      <point x="163" y="-12" type="qcurve" smooth="yes"/>
      <point x="163" y="-9" type="line"/>
      <point x="88" y="-9" type="line"/>
      <point x="88" y="-82"/>
      <point x="117" y="-167"/>
      <point x="178" y="-206"/>
      <point x="270" y="-218"/>
      <point x="350" y="-218" type="qcurve" smooth="yes"/>
      <point x="425" y="-218"/>
      <point x="509" y="-209"/>
      <point x="573" y="-173"/>
      <point x="606" y="-92"/>
      <point x="606" y="-22" type="qcurve" smooth="yes"/>
      <point x="606" y="36"/>
      <point x="577" y="110"/>
      <point x="531" y="126" type="qcurve"/>
      <point x="531" y="128" type="line"/>
      <point x="554" y="134"/>
      <point x="583" y="165"/>
      <point x="598" y="206"/>
      <point x="604" y="251"/>
      <point x="604" y="275" type="qcurve" smooth="yes"/>
      <point x="604" y="314"/>
      <point x="586" y="363"/>
      <point x="552" y="392"/>
      <point x="511" y="408"/>
      <point x="470" y="419" type="qcurve" smooth="yes"/>
      <point x="457" y="423"/>
      <point x="447" y="426" type="qcurve" smooth="yes"/>
      <point x="301" y="467" type="line"/>
      <point x="296" y="469" type="line"/>
      <point x="254" y="480"/>
      <point x="218" y="494"/>
      <point x="197" y="516"/>
      <point x="190" y="552"/>
      <point x="190" y="586" type="qcurve" smooth="yes"/>
      <point x="190" y="622"/>
      <point x="206" y="662"/>
      <point x="242" y="681"/>
      <point x="298" y="686"/>
      <point x="350" y="686" type="qcurve" smooth="yes"/>
      <point x="410" y="686"/>
      <point x="472" y="677"/>
      <point x="504" y="652"/>
      <point x="514" y="604"/>
      <point x="514" y="557" type="qcurve"/>
      <point x="589" y="557" type="line"/>
      <point x="588" y="625"/>
      <point x="569" y="701"/>
      <point x="519" y="742"/>
      <point x="429" y="756"/>
      <point x="350" y="756" type="qcurve" smooth="yes"/>
      <point x="277" y="756"/>
      <point x="196" y="746"/>
      <point x="141" y="711"/>
      <point x="115" y="634"/>
      <point x="115" y="568" type="qcurve" smooth="yes"/>
      <point x="115" y="521"/>
      <point x="137" y="455"/>
      <point x="170" y="438" type="qcurve"/>
      <point x="170" y="436" type="line"/>
      <point x="119" y="427"/>
      <point x="84" y="358"/>
      <point x="84" y="300" type="qcurve" smooth="yes"/>
      <point x="84" y="258"/>
      <point x="95" y="206"/>
      <point x="122" y="173"/>
      <point x="168" y="151"/>
      <point x="208" y="140" type="qcurve" smooth="yes"/>
    </contour>
  </outline>
</glyph>
<glyph name="dieresis" format="1">
  <advance width="438"/>
  <unicode hex="00A8"/>
  <outline>
    <contour>
      <point x="163" y="653" type="line"/>
      <point x="75" y="653" type="line"/>
      <point x="75" y="579" type="line"/>
      <point x="163" y="579" type="line"/>
    </contour>
    <contour>
      <point x="363" y="653" type="line"/>
      <point x="275" y="653" type="line"/>
      <point x="275" y="579" type="line"/>
      <point x="363" y="579" type="line"/>
    </contour>
  </outline>
</glyph>
<glyph name="copyright" format="1">
  <advance width="780"/>
  <unicode hex="00A9"/>
  <outline>
    <contour>
      <point x="391" y="756" type="qcurve" smooth="yes"/>
      <point x="313" y="756"/>
      <point x="173" y="697"/>
      <point x="67" y="592"/>
      <point x="8" y="453"/>
      <point x="8" y="375" type="qcurve" smooth="yes"/>
      <point x="8" y="297"/>
      <point x="67" y="158"/>
      <point x="173" y="52"/>
      <point x="313" y="-6"/>
      <point x="391" y="-6" type="qcurve" smooth="yes"/>
      <point x="469" y="-6"/>
      <point x="608" y="52"/>
      <point x="713" y="158"/>
      <point x="772" y="297"/>
      <point x="772" y="375" type="qcurve" smooth="yes"/>
      <point x="772" y="452"/>
      <point x="713" y="592"/>
      <point x="608" y="697"/>
      <point x="469" y="756"/>
    </contour>
    <contour>
      <point x="391" y="696" type="qcurve" smooth="yes"/>
      <point x="456" y="696"/>
      <point x="573" y="647"/>
      <point x="661" y="558"/>
      <point x="710" y="441"/>
      <point x="710" y="377" type="qcurve" smooth="yes"/>
      <point x="710" y="311"/>
      <point x="661" y="193"/>
      <point x="573" y="104"/>
      <point x="456" y="54"/>
      <point x="391" y="54" type="qcurve" smooth="yes"/>
      <point x="325" y="54"/>
      <point x="208" y="104"/>
      <point x="120" y="193"/>
      <point x="70" y="311"/>
      <point x="70" y="377" type="qcurve" smooth="yes"/>
      <point x="70" y="441"/>
      <point x="120" y="558"/>
      <point x="209" y="647"/>
      <point x="326" y="696"/>
    </contour>
    <contour>
      <point x="525" y="305" type="line"/>
      <point x="519" y="259"/>
      <point x="454" y="208"/>
      <point x="408" y="208" type="qcurve" smooth="yes"/>
      <point x="337" y="208"/>
      <point x="256" y="306"/>
      <point x="256" y="379" type="qcurve" smooth="yes"/>
      <point x="256" y="454"/>
      <point x="333" y="546"/>
      <point x="406" y="546" type="qcurve" smooth="yes"/>
      <point x="453" y="546"/>
      <point x="517" y="497"/>
      <point x="525" y="453" type="qcurve"/>
      <point x="585" y="453" type="line"/>
      <point x="574" y="520"/>
      <point x="475" y="597"/>
      <point x="405" y="597" type="qcurve" smooth="yes"/>
      <point x="309" y="597"/>
      <point x="196" y="474"/>
      <point x="196" y="378" type="qcurve" smooth="yes"/>
      <point x="196" y="331"/>
      <point x="226" y="251"/>
      <point x="282" y="190"/>
      <point x="361" y="157"/>
      <point x="408" y="157" type="qcurve" smooth="yes"/>
      <point x="476" y="157"/>
      <point x="578" y="238"/>
      <point x="585" y="305" type="qcurve"/>
    </contour>
  </outline>
</glyph>
<glyph name="guillemotleft" format="1">
  <advance width="503"/>
  <unicode hex="00AB"/>
  <outline>
    <contour>
      <point x="191" y="575" type="line"/>
      <point x="56" y="289" type="line"/>
      <point x="207" y="0" type="line"/>
      <point x="262" y="36" type="line"/>
      <point x="131" y="289" type="line"/>
      <point x="249" y="540" type="line"/>
    </contour>
    <contour>
      <point x="376" y="575" type="line"/>
      <point x="241" y="289" type="line"/>
      <point x="392" y="0" type="line"/>
      <point x="447" y="36" type="line"/>
      <point x="316" y="289" type="line"/>
      <point x="434" y="540" type="line"/>
    </contour>
  </outline>
</glyph>
<glyph name="logicalnot" format="1">
  <advance width="584"/>
  <unicode hex="00AC"/>
  <outline>
    <contour>
      <point x="459" y="129" type="line"/>
      <point x="534" y="129" type="line"/>
      <point x="534" y="399" type="line"/>
      <point x="50" y="399" type="line"/>
      <point x="50" y="324" type="line"/>
      <point x="459" y="324" type="line"/>
    </contour>
  </outline>
</glyph>
<glyph name="minus" format="1">
  <advance width="584"/>
  <unicode hex="00AD"/>
  <unicode hex="2212"/>
  <outline>
    <contour>
      <point x="50" y="246" type="line"/>
      <point x="534" y="246" type="line"/>
      <point x="534" y="321" type="line"/>
      <point x="50" y="321" type="line"/>
    </contour>
  </outline>
</glyph>
<glyph name="registered" format="1">
  <advance width="780"/>
  <unicode hex="00AE"/>
  <outline>
    <contour>
      <point x="391" y="756" type="qcurve" smooth="yes"/>
      <point x="313" y="756"/>
      <point x="173" y="697"/>
      <point x="67" y="592"/>
      <point x="8" y="453"/>
      <point x="8" y="375" type="qcurve" smooth="yes"/>
      <point x="8" y="297"/>
      <point x="67" y="158"/>
      <point x="173" y="52"/>
      <point x="313" y="-6"/>
      <point x="391" y="-6" type="qcurve" smooth="yes"/>
      <point x="469" y="-6"/>
      <point x="608" y="52"/>
      <point x="713" y="158"/>
      <point x="772" y="297"/>
      <point x="772" y="375" type="qcurve" smooth="yes"/>
      <point x="772" y="452"/>
      <point x="713" y="592"/>
      <point x="608" y="697"/>
      <point x="469" y="756"/>
    </contour>
    <contour>
      <point x="391" y="696" type="qcurve" smooth="yes"/>
      <point x="456" y="696"/>
      <point x="573" y="647"/>
      <point x="661" y="558"/>
      <point x="710" y="441"/>
      <point x="710" y="377" type="qcurve" smooth="yes"/>
      <point x="710" y="311"/>
      <point x="661" y="193"/>
      <point x="573" y="104"/>
      <point x="456" y="54"/>
      <point x="391" y="54" type="qcurve" smooth="yes"/>
      <point x="325" y="54"/>
      <point x="208" y="104"/>
      <point x="120" y="193"/>
      <point x="70" y="311"/>
      <point x="70" y="377" type="qcurve" smooth="yes"/>
      <point x="70" y="441"/>
      <point x="120" y="558"/>
      <point x="209" y="647"/>
      <point x="326" y="696"/>
    </contour>
    <contour>
      <point x="454" y="354" type="line"/>
      <point x="515" y="356"/>
      <point x="587" y="415"/>
      <point x="587" y="475" type="qcurve" smooth="yes"/>
      <point x="587" y="508"/>
      <point x="562" y="553"/>
      <point x="520" y="578"/>
      <point x="467" y="588"/>
      <point x="435" y="588" type="qcurve" smooth="yes"/>
      <point x="249" y="588" type="line"/>
      <point x="249" y="161" type="line"/>
      <point x="309" y="161" type="line"/>
      <point x="309" y="348" type="line"/>
      <point x="392" y="348" type="line"/>
      <point x="514" y="161" type="line"/>
      <point x="581" y="161" type="line"/>
    </contour>
    <contour>
      <point x="309" y="537" type="line"/>
      <point x="423" y="537" type="line" smooth="yes"/>
      <point x="444" y="537"/>
      <point x="478" y="533"/>
      <point x="508" y="521"/>
      <point x="527" y="496"/>
      <point x="527" y="476" type="qcurve" smooth="yes"/>
      <point x="527" y="440"/>
      <point x="481" y="399"/>
      <point x="421" y="399" type="qcurve" smooth="yes"/>
      <point x="309" y="399" type="line"/>
    </contour>
  </outline>
</glyph>
<glyph name="degree" format="1">
  <advance width="400"/>
  <unicode hex="00B0"/>
  <outline>
    <contour>
      <point x="350" y="606" type="qcurve" smooth="yes"/>
      <point x="350" y="636"/>
      <point x="327" y="691"/>
      <point x="285" y="733"/>
      <point x="230" y="756"/>
      <point x="200" y="756" type="qcurve" smooth="yes"/>
      <point x="170" y="756"/>
      <point x="115" y="733"/>
      <point x="73" y="691"/>
      <point x="50" y="637"/>
      <point x="50" y="606" type="qcurve" smooth="yes"/>
      <point x="50" y="576"/>
      <point x="73" y="521"/>
      <point x="115" y="479"/>
      <point x="170" y="456"/>
      <point x="200" y="456" type="qcurve" smooth="yes"/>
      <point x="230" y="456"/>
      <point x="285" y="479"/>
      <point x="327" y="520"/>
      <point x="350" y="575"/>
    </contour>
    <contour>
      <point x="300" y="606" type="qcurve" smooth="yes"/>
      <point x="300" y="565"/>
      <point x="241" y="506"/>
      <point x="200" y="506" type="qcurve" smooth="yes"/>
      <point x="159" y="506"/>
      <point x="100" y="564"/>
      <point x="100" y="606" type="qcurve" smooth="yes"/>
      <point x="100" y="647"/>
      <point x="159" y="706"/>
      <point x="199" y="706" type="qcurve" smooth="yes"/>
      <point x="240" y="706"/>
      <point x="300" y="647"/>
    </contour>
  </outline>
</glyph>
<glyph name="plusminus" format="1">
  <advance width="584"/>
  <unicode hex="00B1"/>
  <outline>
    <contour>
      <point x="255" y="525" type="line"/>
      <point x="255" y="373" type="line"/>
      <point x="50" y="373" type="line"/>
      <point x="50" y="298" type="line"/>
      <point x="255" y="298" type="line"/>
      <point x="255" y="146" type="line"/>
      <point x="330" y="146" type="line"/>
      <point x="330" y="298" type="line"/>
      <point x="534" y="298" type="line"/>
      <point x="534" y="373" type="line"/>
      <point x="330" y="373" type="line"/>
      <point x="330" y="525" type="line"/>
    </contour>
    <contour>
      <point x="50" y="10" type="line"/>
      <point x="534" y="10" type="line"/>
      <point x="534" y="85" type="line"/>
      <point x="50" y="85" type="line"/>
    </contour>
  </outline>
</glyph>
<glyph name="twosuperior" format="1">
  <advance width="414"/>
  <unicode hex="00B2"/>
  <outline>
    <contour>
      <point x="105" y="362" type="line"/>
      <point x="105" y="385" type="line" smooth="yes"/>
      <point x="105" y="428"/>
      <point x="150" y="454"/>
      <point x="224" y="459" type="qcurve" smooth="yes"/>
      <point x="272" y="463"/>
      <point x="335" y="478"/>
      <point x="374" y="511"/>
      <point x="392" y="567"/>
      <point x="392" y="613" type="qcurve" smooth="yes"/>
      <point x="392" y="657"/>
      <point x="375" y="711"/>
      <point x="337" y="743"/>
      <point x="273" y="756"/>
      <point x="222" y="756" type="qcurve" smooth="yes"/>
      <point x="159" y="756"/>
      <point x="86" y="742"/>
      <point x="51" y="711"/>
      <point x="40" y="663"/>
      <point x="40" y="621" type="qcurve" smooth="yes"/>
      <point x="40" y="598" type="line"/>
      <point x="105" y="598" type="line"/>
      <point x="105" y="621" type="line" smooth="yes"/>
      <point x="105" y="648"/>
      <point x="114" y="677"/>
      <point x="137" y="691"/>
      <point x="181" y="696"/>
      <point x="222" y="696" type="qcurve" smooth="yes"/>
      <point x="257" y="696"/>
      <point x="295" y="691"/>
      <point x="317" y="676"/>
      <point x="327" y="643"/>
      <point x="327" y="613" type="qcurve" smooth="yes"/>
      <point x="327" y="582"/>
      <point x="318" y="548"/>
      <point x="297" y="531"/>
      <point x="265" y="525"/>
      <point x="229" y="521" type="qcurve" smooth="yes"/>
      <point x="211" y="519" type="line" smooth="yes"/>
      <point x="160" y="514"/>
      <point x="101" y="502"/>
      <point x="60" y="475"/>
      <point x="40" y="422"/>
      <point x="40" y="378" type="qcurve" smooth="yes"/>
      <point x="40" y="302" type="line"/>
      <point x="391" y="302" type="line"/>
      <point x="391" y="362" type="line"/>
    </contour>
  </outline>
</glyph>
<glyph name="threesuperior" format="1">
  <advance width="414"/>
  <unicode hex="00B3"/>
  <outline>
    <contour>
      <point x="179" y="508" type="line"/>
      <point x="237" y="508" type="line" smooth="yes"/>
      <point x="294" y="508"/>
      <point x="335" y="485"/>
      <point x="335" y="435" type="qcurve" smooth="yes"/>
      <point x="335" y="405"/>
      <point x="327" y="374"/>
      <point x="302" y="358"/>
      <point x="256" y="353"/>
      <point x="211" y="353" type="qcurve" smooth="yes"/>
      <point x="171" y="354"/>
      <point x="132" y="358"/>
      <point x="111" y="371"/>
      <point x="103" y="397"/>
      <point x="103" y="423" type="qcurve" smooth="yes"/>
      <point x="103" y="448" type="line"/>
      <point x="38" y="448" type="line"/>
      <point x="38" y="418" type="line" smooth="yes"/>
      <point x="38" y="344"/>
      <point x="119" y="298"/>
      <point x="211" y="298" type="qcurve" smooth="yes"/>
      <point x="267" y="298"/>
      <point x="327" y="303"/>
      <point x="375" y="327"/>
      <point x="400" y="381"/>
      <point x="400" y="429" type="qcurve" smooth="yes"/>
      <point x="400" y="481"/>
      <point x="363" y="528"/>
      <point x="310" y="532" type="qcurve"/>
      <point x="310" y="534" type="line"/>
      <point x="360" y="537"/>
      <point x="390" y="588"/>
      <point x="390" y="639" type="qcurve" smooth="yes"/>
      <point x="390" y="681"/>
      <point x="366" y="729"/>
      <point x="323" y="750"/>
      <point x="270" y="755"/>
      <point x="220" y="756" type="qcurve" smooth="yes"/>
      <point x="216" y="756" type="line" smooth="yes"/>
      <point x="166" y="756"/>
      <point x="108" y="749"/>
      <point x="66" y="725"/>
      <point x="44" y="675"/>
      <point x="44" y="633" type="qcurve" smooth="yes"/>
      <point x="44" y="614" type="line"/>
      <point x="109" y="614" type="line"/>
      <point x="109" y="633" type="line" smooth="yes"/>
      <point x="110" y="656"/>
      <point x="118" y="683"/>
      <point x="139" y="696"/>
      <point x="175" y="701"/>
      <point x="209" y="701" type="qcurve" smooth="yes"/>
      <point x="252" y="701"/>
      <point x="295" y="696"/>
      <point x="318" y="683"/>
      <point x="325" y="656"/>
      <point x="325" y="630" type="qcurve" smooth="yes"/>
      <point x="325" y="584"/>
      <point x="294" y="564"/>
      <point x="246" y="563" type="qcurve" smooth="yes"/>
      <point x="237" y="563" type="line"/>
      <point x="179" y="563" type="line"/>
    </contour>
  </outline>
</glyph>
<glyph name="acute" format="1">
  <advance width="338"/>
  <unicode hex="00B4"/>
  <outline>
    <contour>
      <point x="224" y="743" type="line"/>
      <point x="75" y="630" type="line"/>
      <point x="102" y="589" type="line"/>
      <point x="263" y="689" type="line"/>
    </contour>
  </outline>
</glyph>
<glyph name="periodcentered" format="1">
  <advance width="345"/>
  <unicode hex="00B7"/>
  <unicode hex="2219"/>
  <outline>
    <contour>
      <point x="217" y="335" type="line"/>
      <point x="128" y="335" type="line"/>
      <point x="128" y="233" type="line"/>
      <point x="217" y="233" type="line"/>
    </contour>
  </outline>
</glyph>
<glyph name="cedilla" format="1">
  <advance width="270"/>
  <unicode hex="00B8"/>
  <outline>
    <contour>
      <point x="130" y="-40" type="line"/>
      <point x="64" y="-154" type="line"/>
      <point x="107" y="-177" type="line"/>
      <point x="184" y="-70" type="line"/>
    </contour>
  </outline>
</glyph>
<glyph name="onequarter" format="1">
  <advance width="1035"/>
  <unicode hex="00BC"/>
  <outline>
    <contour>
      <point x="915" y="450" type="line"/>
      <point x="823" y="450" type="line"/>
      <point x="581" y="163" type="line"/>
      <point x="581" y="91" type="line"/>
      <point x="850" y="91" type="line"/>
      <point x="850" y="0" type="line"/>
      <point x="915" y="0" type="line"/>
      <point x="915" y="91" type="line"/>
      <point x="981" y="91" type="line"/>
      <point x="981" y="151" type="line"/>
      <point x="915" y="151" type="line"/>
    </contour>
    <contour>
      <point x="850" y="151" type="line"/>
      <point x="631" y="151" type="line"/>
      <point x="847" y="407" type="line"/>
      <point x="850" y="407" type="line"/>
    </contour>
    <contour>
      <point x="803" y="750" type="line"/>
      <point x="733" y="750" type="line"/>
      <point x="227" y="0" type="line"/>
      <point x="294" y="0" type="line"/>
    </contour>
    <contour>
      <point x="279" y="750" type="line"/>
      <point x="189" y="750" type="line"/>
      <point x="55" y="615" type="line"/>
      <point x="89" y="574" type="line"/>
      <point x="214" y="702" type="line"/>
      <point x="214" y="300" type="line"/>
      <point x="279" y="300" type="line"/>
    </contour>
  </outline>
</glyph>
<glyph name="onehalf" format="1">
  <advance width="1035"/>
  <unicode hex="00BD"/>
  <outline>
    <contour>
      <point x="784" y="750" type="line"/>
      <point x="714" y="750" type="line"/>
      <point x="208" y="0" type="line"/>
      <point x="275" y="0" type="line"/>
    </contour>
    <contour>
      <point x="181" y="750" type="line"/>
      <point x="47" y="615" type="line"/>
      <point x="81" y="574" type="line"/>
      <point x="206" y="702" type="line"/>
      <point x="206" y="300" type="line"/>
      <point x="271" y="300" type="line"/>
      <point x="271" y="750" type="line"/>
    </contour>
    <contour>
      <point x="701" y="60" type="line"/>
      <point x="701" y="83" type="line" smooth="yes"/>
      <point x="701" y="126"/>
      <point x="746" y="152"/>
      <point x="820" y="157" type="qcurve" smooth="yes"/>
      <point x="868" y="161"/>
      <point x="931" y="176"/>
      <point x="970" y="209"/>
      <point x="988" y="265"/>
      <point x="988" y="311" type="qcurve" smooth="yes"/>
      <point x="988" y="355"/>
      <point x="971" y="409"/>
      <point x="933" y="441"/>
      <point x="869" y="454"/>
      <point x="818" y="454" type="qcurve" smooth="yes"/>
      <point x="755" y="454"/>
      <point x="682" y="440"/>
      <point x="647" y="409"/>
      <point x="636" y="361"/>
      <point x="636" y="319" type="qcurve" smooth="yes"/>
      <point x="636" y="296" type="line"/>
      <point x="701" y="296" type="line"/>
      <point x="701" y="319" type="line" smooth="yes"/>
      <point x="701" y="346"/>
      <point x="710" y="375"/>
      <point x="733" y="389"/>
      <point x="777" y="394"/>
      <point x="818" y="394" type="qcurve" smooth="yes"/>
      <point x="853" y="394"/>
      <point x="891" y="389"/>
      <point x="913" y="374"/>
      <point x="923" y="341"/>
      <point x="923" y="311" type="qcurve" smooth="yes"/>
      <point x="923" y="280"/>
      <point x="914" y="246"/>
      <point x="893" y="229"/>
      <point x="861" y="223"/>
      <point x="825" y="219" type="qcurve" smooth="yes"/>
      <point x="807" y="217" type="line" smooth="yes"/>
      <point x="756" y="212"/>
      <point x="697" y="200"/>
      <point x="656" y="173"/>
      <point x="636" y="120"/>
      <point x="636" y="76" type="qcurve" smooth="yes"/>
      <point x="636" y="0" type="line"/>
      <point x="987" y="0" type="line"/>
      <point x="987" y="60" type="line"/>
    </contour>
  </outline>
</glyph>
<glyph name="questiondown" format="1">
  <advance width="584"/>
  <unicode hex="00BF"/>
  <outline>
    <contour>
      <point x="286" y="309" type="line"/>
      <point x="286" y="282" type="line" smooth="yes"/>
      <point x="286" y="259"/>
      <point x="279" y="233"/>
      <point x="259" y="216"/>
      <point x="227" y="203"/>
      <point x="188" y="189" type="qcurve" smooth="yes"/>
      <point x="143" y="174"/>
      <point x="91" y="134"/>
      <point x="65" y="83"/>
      <point x="57" y="19"/>
      <point x="57" y="-33" type="qcurve" smooth="yes"/>
      <point x="57" y="-94"/>
      <point x="83" y="-172"/>
      <point x="137" y="-215"/>
      <point x="223" y="-233"/>
      <point x="287" y="-233" type="qcurve" smooth="yes"/>
      <point x="356" y="-233"/>
      <point x="439" y="-220"/>
      <point x="497" y="-181"/>
      <point x="527" y="-101"/>
      <point x="528" y="-33" type="qcurve" smooth="yes"/>
      <point x="528" y="10" type="line"/>
      <point x="448" y="10" type="line"/>
      <point x="448" y="-33" type="line" smooth="yes"/>
      <point x="448" y="-78"/>
      <point x="433" y="-128"/>
      <point x="397" y="-152"/>
      <point x="340" y="-158"/>
      <point x="287" y="-158" type="qcurve" smooth="yes"/>
      <point x="237" y="-158"/>
      <point x="181" y="-150"/>
      <point x="150" y="-125"/>
      <point x="137" y="-76"/>
      <point x="137" y="-33" type="qcurve" smooth="yes"/>
      <point x="137" y="13"/>
      <point x="143" y="61"/>
      <point x="162" y="89"/>
      <point x="194" y="107"/>
      <point x="230" y="122" type="qcurve" smooth="yes"/>
      <point x="277" y="139"/>
      <point x="328" y="166"/>
      <point x="359" y="198"/>
      <point x="371" y="245"/>
      <point x="371" y="282" type="qcurve" smooth="yes"/>
      <point x="371" y="309" type="line"/>
    </contour>
    <contour>
      <point x="372" y="525" type="line"/>
      <point x="283" y="525" type="line"/>
      <point x="283" y="423" type="line"/>
      <point x="372" y="423" type="line"/>
    </contour>
  </outline>
</glyph>
<glyph name="AE" format="1">
  <advance width="1044"/>
  <unicode hex="00C6"/>
  <outline>
    <contour>
      <point x="614" y="675" type="line"/>
      <point x="1007" y="675" type="line"/>
      <point x="1007" y="750" type="line"/>
      <point x="406" y="750" type="line"/>
      <point x="-8" y="0" type="line"/>
      <point x="92" y="0" type="line"/>
      <point x="179" y="155" type="line"/>
      <point x="529" y="155" type="line"/>
      <point x="529" y="0" type="line"/>
      <point x="1007" y="0" type="line"/>
      <point x="1007" y="75" type="line"/>
      <point x="614" y="75" type="line"/>
      <point x="614" y="350" type="line"/>
      <point x="989" y="350" type="line"/>
      <point x="989" y="420" type="line"/>
      <point x="614" y="420" type="line"/>
    </contour>
    <contour>
      <point x="529" y="230" type="line"/>
      <point x="218" y="230" type="line"/>
      <point x="457" y="675" type="line"/>
      <point x="529" y="675" type="line"/>
    </contour>
  </outline>
</glyph>
<glyph name="Ccedilla" format="1">
  <advance width="665"/>
  <unicode hex="00C7"/>
  <outline>
    <contour>
      <point x="328" y="-40" type="line"/>
      <point x="262" y="-154" type="line"/>
      <point x="305" y="-177" type="line"/>
      <point x="382" y="-70" type="line"/>
    </contour>
    <contour>
      <point x="383" y="-6" type="line" smooth="yes"/>
      <point x="447" y="-6"/>
      <point x="537" y="7"/>
      <point x="605" y="45"/>
      <point x="643" y="123"/>
      <point x="643" y="185" type="qcurve" smooth="yes"/>
      <point x="643" y="255" type="line"/>
      <point x="558" y="255" type="line"/>
      <point x="558" y="195" type="line" smooth="yes"/>
      <point x="558" y="154"/>
      <point x="540" y="105"/>
      <point x="500" y="79"/>
      <point x="434" y="69"/>
      <point x="380" y="69" type="qcurve" smooth="yes"/>
      <point x="279" y="69" type="line" smooth="yes"/>
      <point x="226" y="69"/>
      <point x="166" y="98"/>
      <point x="138" y="157"/>
      <point x="130" y="242"/>
      <point x="130" y="317" type="qcurve" smooth="yes"/>
      <point x="130" y="523" type="line" smooth="yes"/>
      <point x="130" y="575"/>
      <point x="155" y="637"/>
      <point x="210" y="669"/>
      <point x="297" y="681"/>
      <point x="368" y="681" type="qcurve" smooth="yes"/>
      <point x="416" y="681" type="line" smooth="yes"/>
      <point x="496" y="681"/>
      <point x="548" y="619"/>
      <point x="548" y="537" type="qcurve" smooth="yes"/>
      <point x="548" y="516" type="line"/>
      <point x="633" y="516" type="line"/>
      <point x="633" y="540" type="line" smooth="yes"/>
      <point x="633" y="655"/>
      <point x="543" y="756"/>
      <point x="428" y="756" type="qcurve" smooth="yes"/>
      <point x="358" y="756" type="line" smooth="yes"/>
      <point x="280" y="756"/>
      <point x="171" y="740"/>
      <point x="90" y="692"/>
      <point x="45" y="597"/>
      <point x="45" y="520" type="qcurve" smooth="yes"/>
      <point x="45" y="230" type="line" smooth="yes"/>
      <point x="45" y="118"/>
      <point x="160" y="-6"/>
      <point x="263" y="-6" type="qcurve" smooth="yes"/>
    </contour>
  </outline>
</glyph>
<glyph name="Egrave" format="1">
  <advance width="560"/>
  <unicode hex="00C8"/>
  <outline>
    <contour>
      <point x="226" y="968" type="line"/>
      <point x="186" y="914" type="line"/>
      <point x="348" y="814" type="line"/>
      <point x="374" y="855" type="line"/>
    </contour>
    <contour>
      <point x="126" y="675" type="line"/>
      <point x="523" y="675" type="line"/>
      <point x="523" y="750" type="line"/>
      <point x="41" y="750" type="line"/>
      <point x="41" y="0" type="line"/>
      <point x="523" y="0" type="line"/>
      <point x="523" y="75" type="line"/>
      <point x="126" y="75" type="line"/>
      <point x="126" y="350" type="line"/>
      <point x="506" y="350" type="line"/>
      <point x="506" y="420" type="line"/>
      <point x="126" y="420" type="line"/>
    </contour>
  </outline>
</glyph>
<glyph name="Eacute" format="1">
  <advance width="560"/>
  <unicode hex="00C9"/>
  <outline>
    <contour>
      <point x="335" y="968" type="line"/>
      <point x="186" y="855" type="line"/>
      <point x="213" y="814" type="line"/>
      <point x="374" y="914" type="line"/>
    </contour>
    <contour>
      <point x="126" y="675" type="line"/>
      <point x="523" y="675" type="line"/>
      <point x="523" y="750" type="line"/>
      <point x="41" y="750" type="line"/>
      <point x="41" y="0" type="line"/>
      <point x="523" y="0" type="line"/>
      <point x="523" y="75" type="line"/>
      <point x="126" y="75" type="line"/>
      <point x="126" y="350" type="line"/>
      <point x="506" y="350" type="line"/>
      <point x="506" y="420" type="line"/>
      <point x="126" y="420" type="line"/>
    </contour>
  </outline>
</glyph>
<glyph name="Ecircumflex" format="1">
  <advance width="560"/>
  <unicode hex="00CA"/>
  <outline>
    <contour>
      <point x="282" y="961" type="line"/>
      <point x="106" y="853" type="line"/>
      <point x="127" y="811" type="line"/>
      <point x="282" y="887" type="line"/>
      <point x="431" y="811" type="line"/>
      <point x="455" y="853" type="line"/>
    </contour>
    <contour>
      <point x="126" y="675" type="line"/>
      <point x="523" y="675" type="line"/>
      <point x="523" y="750" type="line"/>
      <point x="41" y="750" type="line"/>
      <point x="41" y="0" type="line"/>
      <point x="523" y="0" type="line"/>
      <point x="523" y="75" type="line"/>
      <point x="126" y="75" type="line"/>
      <point x="126" y="350" type="line"/>
      <point x="506" y="350" type="line"/>
      <point x="506" y="420" type="line"/>
      <point x="126" y="420" type="line"/>
    </contour>
  </outline>
</glyph>
<glyph name="Igrave" format="1">
  <advance width="228"/>
  <unicode hex="00CC"/>
  <outline>
    <contour>
      <point x="60" y="968" type="line"/>
      <point x="20" y="914" type="line"/>
      <point x="182" y="814" type="line"/>
      <point x="208" y="855" type="line"/>
    </contour>
    <contour>
      <point x="157" y="750" type="line"/>
      <point x="72" y="750" type="line"/>
      <point x="72" y="0" type="line"/>
      <point x="157" y="0" type="line"/>
    </contour>
  </outline>
</glyph>
<glyph name="Iacute" format="1">
  <advance width="228"/>
  <unicode hex="00CD"/>
  <outline>
    <contour>
      <point x="169" y="968" type="line"/>
      <point x="20" y="855" type="line"/>
      <point x="47" y="814" type="line"/>
      <point x="208" y="914" type="line"/>
    </contour>
    <contour>
      <point x="157" y="750" type="line"/>
      <point x="72" y="750" type="line"/>
      <point x="72" y="0" type="line"/>
      <point x="157" y="0" type="line"/>
    </contour>
  </outline>
</glyph>
<glyph name="Idieresis" format="1">
  <advance width="228"/>
  <unicode hex="00CF"/>
  <outline>
    <contour>
      <point x="58" y="878" type="line"/>
      <point x="-30" y="878" type="line"/>
      <point x="-30" y="804" type="line"/>
      <point x="58" y="804" type="line"/>
    </contour>
    <contour>
      <point x="258" y="878" type="line"/>
      <point x="170" y="878" type="line"/>
      <point x="170" y="804" type="line"/>
      <point x="258" y="804" type="line"/>
    </contour>
    <contour>
      <point x="157" y="750" type="line"/>
      <point x="72" y="750" type="line"/>
      <point x="72" y="0" type="line"/>
      <point x="157" y="0" type="line"/>
    </contour>
  </outline>
</glyph>
<glyph name="Ntilde" format="1">
  <advance width="783"/>
  <unicode hex="00D1"/>
  <outline>
    <contour>
      <point x="518" y="914" type="line"/>
      <point x="507" y="895"/>
      <point x="478" y="870"/>
      <point x="460" y="870" type="qcurve" smooth="yes"/>
      <point x="448" y="870"/>
      <point x="416" y="881"/>
      <point x="391" y="892" type="qcurve" smooth="yes"/>
      <point x="387" y="894" type="line" smooth="yes"/>
      <point x="361" y="904"/>
      <point x="332" y="913"/>
      <point x="318" y="913" type="qcurve" smooth="yes"/>
      <point x="285" y="913"/>
      <point x="239" y="873"/>
      <point x="222" y="839" type="qcurve"/>
      <point x="267" y="813" type="line"/>
      <point x="269" y="817"/>
      <point x="271" y="819" type="qcurve" smooth="yes"/>
      <point x="281" y="838"/>
      <point x="299" y="854"/>
      <point x="317" y="854" type="qcurve" smooth="yes"/>
      <point x="335" y="854"/>
      <point x="378" y="836" type="qcurve" smooth="yes"/>
      <point x="385" y="833" type="line" smooth="yes"/>
      <point x="410" y="822"/>
      <point x="443" y="811"/>
      <point x="458" y="811" type="qcurve" smooth="yes"/>
      <point x="491" y="811"/>
      <point x="542" y="853"/>
      <point x="561" y="886" type="qcurve"/>
    </contour>
    <contour>
      <point x="715" y="750" type="line"/>
      <point x="630" y="750" type="line"/>
      <point x="630" y="65" type="line"/>
      <point x="628" y="65" type="line"/>
      <point x="208" y="750" type="line"/>
      <point x="68" y="750" type="line"/>
      <point x="68" y="0" type="line"/>
      <point x="153" y="0" type="line"/>
      <point x="153" y="680" type="line"/>
      <point x="155" y="680" type="line"/>
      <point x="576" y="0" type="line"/>
      <point x="715" y="0" type="line"/>
    </contour>
  </outline>
</glyph>
<glyph name="Oacute" format="1">
  <advance width="671"/>
  <unicode hex="00D3"/>
  <outline>
    <contour>
      <point x="391" y="968" type="line"/>
      <point x="242" y="855" type="line"/>
      <point x="269" y="814" type="line"/>
      <point x="430" y="914" type="line"/>
    </contour>
    <contour>
      <point x="285" y="756" type="line" smooth="yes"/>
      <point x="214" y="755"/>
      <point x="121" y="729"/>
      <point x="65" y="671"/>
      <point x="41" y="577"/>
      <point x="41" y="504" type="qcurve" smooth="yes"/>
      <point x="41" y="237" type="line" smooth="yes"/>
      <point x="41" y="104"/>
      <point x="151" y="-6"/>
      <point x="285" y="-6" type="qcurve" smooth="yes"/>
      <point x="386" y="-6" type="line" smooth="yes"/>
      <point x="521" y="-6"/>
      <point x="630" y="104"/>
      <point x="630" y="237" type="qcurve" smooth="yes"/>
      <point x="630" y="504" type="line" smooth="yes"/>
      <point x="630" y="577"/>
      <point x="606" y="671"/>
      <point x="550" y="729"/>
      <point x="457" y="755"/>
      <point x="386" y="756" type="qcurve" smooth="yes"/>
    </contour>
    <contour>
      <point x="386" y="681" type="line" smooth="yes"/>
      <point x="435" y="681"/>
      <point x="496" y="666"/>
      <point x="530" y="628"/>
      <point x="545" y="561"/>
      <point x="545" y="504" type="qcurve" smooth="yes"/>
      <point x="545" y="237" type="line" smooth="yes"/>
      <point x="545" y="182"/>
      <point x="527" y="115"/>
      <point x="488" y="81"/>
      <point x="432" y="70"/>
      <point x="386" y="69" type="qcurve" smooth="yes"/>
      <point x="285" y="69" type="line" smooth="yes"/>
      <point x="240" y="69"/>
      <point x="183" y="81"/>
      <point x="145" y="115"/>
      <point x="126" y="182"/>
      <point x="126" y="237" type="qcurve" smooth="yes"/>
      <point x="126" y="504" type="line" smooth="yes"/>
      <point x="126" y="561"/>
      <point x="141" y="628"/>
      <point x="176" y="666"/>
      <point x="236" y="681"/>
      <point x="285" y="681" type="qcurve" smooth="yes"/>
    </contour>
  </outline>
</glyph>
<glyph name="multiply" format="1">
  <advance width="584"/>
  <unicode hex="00D7"/>
  <outline>
    <contour>
      <point x="50" y="436" type="line"/>
      <point x="243" y="243" type="line"/>
      <point x="50" y="50" type="line"/>
      <point x="99" y="0" type="line"/>
      <point x="292" y="194" type="line"/>
      <point x="485" y="0" type="line"/>
      <point x="534" y="50" type="line"/>
      <point x="341" y="243" type="line"/>
      <point x="534" y="436" type="line"/>
      <point x="485" y="486" type="line"/>
      <point x="292" y="292" type="line"/>
      <point x="99" y="486" type="line"/>
    </contour>
  </outline>
</glyph>
<glyph name="Oslash" format="1">
  <advance width="723"/>
  <unicode hex="00D8"/>
  <outline>
    <contour>
      <point x="596" y="559" type="line"/>
      <point x="596" y="236" type="line" smooth="yes"/>
      <point x="596" y="149"/>
      <point x="531" y="69"/>
      <point x="442" y="69" type="qcurve" smooth="yes"/>
      <point x="306" y="69" type="line" smooth="yes"/>
      <point x="282" y="69"/>
      <point x="241" y="72"/>
      <point x="195" y="82"/>
      <point x="157" y="107"/>
      <point x="149" y="126" type="qcurve"/>
    </contour>
    <contour>
      <point x="128" y="191" type="line"/>
      <point x="128" y="482" type="line" smooth="yes"/>
      <point x="128" y="544"/>
      <point x="141" y="617"/>
      <point x="178" y="662"/>
      <point x="248" y="681"/>
      <point x="306" y="681" type="qcurve" smooth="yes"/>
      <point x="442" y="681" type="line" smooth="yes"/>
      <point x="493" y="681"/>
      <point x="560" y="659"/>
      <point x="574" y="627" type="qcurve"/>
    </contour>
    <contour>
      <point x="707" y="751" type="line"/>
      <point x="633" y="684" type="line"/>
      <point x="603" y="723"/>
      <point x="506" y="756"/>
      <point x="442" y="756" type="qcurve" smooth="yes"/>
      <point x="306" y="756" type="line" smooth="yes"/>
      <point x="241" y="756"/>
      <point x="146" y="733"/>
      <point x="79" y="673"/>
      <point x="43" y="565"/>
      <point x="43" y="482" type="qcurve" smooth="yes"/>
      <point x="43" y="236" type="line" smooth="yes"/>
      <point x="43" y="206"/>
      <point x="56" y="138"/>
      <point x="61" y="126" type="qcurve"/>
      <point x="16" y="82" type="line"/>
      <point x="16" y="1" type="line"/>
      <point x="89" y="69" type="line"/>
      <point x="124" y="22"/>
      <point x="229" y="-6"/>
      <point x="306" y="-6" type="qcurve" smooth="yes"/>
      <point x="442" y="-6" type="line" smooth="yes"/>
      <point x="565" y="-6"/>
      <point x="681" y="103"/>
      <point x="681" y="236" type="qcurve" smooth="yes"/>
      <point x="681" y="482" type="line" smooth="yes"/>
      <point x="681" y="540"/>
      <point x="674" y="603"/>
      <point x="661" y="627" type="qcurve"/>
      <point x="707" y="665" type="line"/>
    </contour>
  </outline>
</glyph>
<glyph name="Udieresis" format="1">
  <advance width="737"/>
  <unicode hex="00DC"/>
  <outline>
    <contour>
      <point x="313" y="878" type="line"/>
      <point x="225" y="878" type="line"/>
      <point x="225" y="804" type="line"/>
      <point x="313" y="804" type="line"/>
    </contour>
    <contour>
      <point x="513" y="878" type="line"/>
      <point x="425" y="878" type="line"/>
      <point x="425" y="804" type="line"/>
      <point x="513" y="804" type="line"/>
    </contour>
    <contour>
      <point x="581" y="750" type="line"/>
      <point x="581" y="210" type="line" smooth="yes"/>
      <point x="581" y="158"/>
      <point x="558" y="101"/>
      <point x="509" y="75"/>
      <point x="439" y="69"/>
      <point x="369" y="69" type="qcurve" smooth="yes"/>
      <point x="296" y="69"/>
      <point x="216" y="79"/>
      <point x="173" y="108"/>
      <point x="157" y="162"/>
      <point x="157" y="210" type="qcurve" smooth="yes"/>
      <point x="157" y="750" type="line"/>
      <point x="72" y="750" type="line"/>
      <point x="72" y="210" type="line" smooth="yes"/>
      <point x="72" y="134"/>
      <point x="116" y="44"/>
      <point x="195" y="4"/>
      <point x="291" y="-6"/>
      <point x="369" y="-6" type="qcurve" smooth="yes"/>
      <point x="446" y="-6"/>
      <point x="548" y="7"/>
      <point x="625" y="49"/>
      <point x="666" y="137"/>
      <point x="666" y="210" type="qcurve" smooth="yes"/>
      <point x="666" y="750" type="line"/>
    </contour>
  </outline>
</glyph>
<glyph name="Thorn" format="1">
  <advance width="661"/>
  <unicode hex="00DE"/>
  <outline>
    <contour>
      <point x="59" y="0" type="line"/>
      <point x="144" y="0" type="line"/>
      <point x="144" y="146" type="line"/>
      <point x="437" y="146" type="line" smooth="yes"/>
      <point x="501" y="146"/>
      <point x="578" y="195"/>
      <point x="612" y="269"/>
      <point x="620" y="338"/>
      <point x="620" y="377" type="qcurve" smooth="yes"/>
      <point x="620" y="429"/>
      <point x="604" y="510"/>
      <point x="564" y="571"/>
      <point x="494" y="604"/>
      <point x="441" y="604" type="qcurve" smooth="yes"/>
      <point x="144" y="604" type="line"/>
      <point x="144" y="750" type="line"/>
      <point x="59" y="750" type="line"/>
    </contour>
    <contour>
      <point x="404" y="529" type="line" smooth="yes"/>
      <point x="446" y="529"/>
      <point x="495" y="518"/>
      <point x="523" y="485"/>
      <point x="535" y="422"/>
      <point x="535" y="366" type="qcurve" smooth="yes"/>
      <point x="535" y="313"/>
      <point x="514" y="254"/>
      <point x="473" y="227"/>
      <point x="417" y="221"/>
      <point x="364" y="221" type="qcurve" smooth="yes"/>
      <point x="144" y="221" type="line"/>
      <point x="144" y="529" type="line"/>
    </contour>
  </outline>
</glyph>
<glyph name="aring" format="1">
  <advance width="570"/>
  <unicode hex="00E5"/>
  <outline>
    <contour>
      <point x="199" y="649" type="qcurve" smooth="yes"/>
      <point x="199" y="613"/>
      <point x="250" y="562"/>
      <point x="285" y="562" type="qcurve" smooth="yes"/>
      <point x="321" y="562"/>
      <point x="372" y="613"/>
      <point x="372" y="649" type="qcurve" smooth="yes"/>
      <point x="372" y="684"/>
      <point x="321" y="736"/>
      <point x="285" y="736" type="qcurve" smooth="yes"/>
      <point x="250" y="736"/>
      <point x="199" y="684"/>
    </contour>
    <contour>
      <point x="237" y="649" type="qcurve" smooth="yes"/>
      <point x="237" y="669"/>
      <point x="265" y="698"/>
      <point x="285" y="698" type="qcurve" smooth="yes"/>
      <point x="305" y="698"/>
      <point x="334" y="669"/>
      <point x="334" y="649" type="qcurve" smooth="yes"/>
      <point x="334" y="629"/>
      <point x="305" y="600"/>
      <point x="285" y="600" type="qcurve" smooth="yes"/>
      <point x="265" y="600"/>
      <point x="237" y="629"/>
    </contour>
    <contour>
      <point x="263" y="58" type="qcurve" smooth="yes"/>
      <point x="186" y="58"/>
      <point x="131" y="93"/>
      <point x="131" y="163" type="qcurve" smooth="yes"/>
      <point x="131" y="223"/>
      <point x="186" y="254"/>
      <point x="263" y="254" type="qcurve" smooth="yes"/>
      <point x="311" y="254"/>
      <point x="363" y="250"/>
      <point x="402" y="232"/>
      <point x="422" y="192"/>
      <point x="422" y="156" type="qcurve" smooth="yes"/>
      <point x="422" y="122"/>
      <point x="396" y="81"/>
      <point x="352" y="63"/>
      <point x="302" y="58"/>
    </contour>
    <contour>
      <point x="503" y="0" type="line"/>
      <point x="503" y="358" type="line" smooth="yes"/>
      <point x="503" y="415"/>
      <point x="471" y="484"/>
      <point x="413" y="519"/>
      <point x="333" y="531"/>
      <point x="275" y="531" type="qcurve" smooth="yes"/>
      <point x="222" y="531"/>
      <point x="149" y="522"/>
      <point x="95" y="493"/>
      <point x="65" y="435"/>
      <point x="65" y="388" type="qcurve" smooth="yes"/>
      <point x="65" y="377" type="line"/>
      <point x="147" y="377" type="line"/>
      <point x="147" y="395" type="line" smooth="yes"/>
      <point x="147" y="421"/>
      <point x="171" y="451"/>
      <point x="210" y="464"/>
      <point x="252" y="467"/>
      <point x="284" y="467" type="qcurve" smooth="yes"/>
      <point x="360" y="467"/>
      <point x="424" y="429"/>
      <point x="424" y="362" type="qcurve" smooth="yes"/>
      <point x="424" y="265" type="line"/>
      <point x="419" y="265" type="line"/>
      <point x="415" y="282"/>
      <point x="380" y="303"/>
      <point x="329" y="315"/>
      <point x="279" y="318"/>
      <point x="254" y="318" type="qcurve" smooth="yes"/>
      <point x="201" y="318"/>
      <point x="127" y="306"/>
      <point x="76" y="272"/>
      <point x="49" y="206"/>
      <point x="49" y="153" type="qcurve" smooth="yes"/>
      <point x="49" y="103"/>
      <point x="77" y="40"/>
      <point x="130" y="6"/>
      <point x="200" y="-6"/>
      <point x="249" y="-6" type="qcurve" smooth="yes"/>
      <point x="281" y="-6"/>
      <point x="328" y="-3"/>
      <point x="374" y="9"/>
      <point x="411" y="35"/>
      <point x="422" y="56" type="qcurve"/>
      <point x="424" y="54" type="line"/>
      <point x="424" y="0" type="line"/>
    </contour>
  </outline>
</glyph>
<glyph name="ccedilla" format="1">
  <advance width="546"/>
  <unicode hex="00E7"/>
  <outline>
    <contour>
      <point x="268" y="-40" type="line"/>
      <point x="202" y="-154" type="line"/>
      <point x="245" y="-177" type="line"/>
      <point x="322" y="-70" type="line"/>
    </contour>
    <contour>
      <point x="426" y="190" type="line"/>
      <point x="426" y="164" type="line" smooth="yes"/>
      <point x="426" y="96"/>
      <point x="370" y="58"/>
      <point x="291" y="58" type="qcurve" smooth="yes"/>
      <point x="233" y="58"/>
      <point x="169" y="77"/>
      <point x="139" y="120"/>
      <point x="131" y="187"/>
      <point x="131" y="251" type="qcurve" smooth="yes"/>
      <point x="131" y="325"/>
      <point x="138" y="400"/>
      <point x="164" y="447"/>
      <point x="221" y="467"/>
      <point x="274" y="467" type="qcurve" smooth="yes"/>
      <point x="316" y="467"/>
      <point x="363" y="463"/>
      <point x="398" y="445"/>
      <point x="417" y="405"/>
      <point x="417" y="370" type="qcurve" smooth="yes"/>
      <point x="417" y="354" type="line"/>
      <point x="496" y="354" type="line"/>
      <point x="496" y="368" type="line" smooth="yes"/>
      <point x="496" y="422"/>
      <point x="462" y="488"/>
      <point x="402" y="521"/>
      <point x="324" y="531"/>
      <point x="269" y="531" type="qcurve" smooth="yes"/>
      <point x="199" y="531"/>
      <point x="112" y="499"/>
      <point x="66" y="436"/>
      <point x="49" y="343"/>
      <point x="49" y="273" type="qcurve" smooth="yes"/>
      <point x="49" y="190"/>
      <point x="62" y="92"/>
      <point x="107" y="26"/>
      <point x="201" y="-6"/>
      <point x="282" y="-6" type="qcurve" smooth="yes"/>
      <point x="335" y="-6"/>
      <point x="412" y="6"/>
      <point x="472" y="40"/>
      <point x="505" y="108"/>
      <point x="505" y="161" type="qcurve" smooth="yes"/>
      <point x="505" y="190" type="line"/>
    </contour>
  </outline>
</glyph>
<glyph name="iacute" format="1">
  <advance width="215"/>
  <unicode hex="00ED"/>
  <outline>
    <contour>
      <point x="163" y="743" type="line"/>
      <point x="14" y="630" type="line"/>
      <point x="41" y="589" type="line"/>
      <point x="202" y="689" type="line"/>
    </contour>
    <contour>
      <point x="147" y="525" type="line"/>
      <point x="68" y="525" type="line"/>
      <point x="68" y="0" type="line"/>
      <point x="147" y="0" type="line"/>
    </contour>
  </outline>
</glyph>
<glyph name="idieresis" format="1">
  <advance width="215"/>
  <unicode hex="00EF"/>
  <outline>
    <contour>
      <point x="52" y="653" type="line"/>
      <point x="-36" y="653" type="line"/>
      <point x="-36" y="579" type="line"/>
      <point x="52" y="579" type="line"/>
    </contour>
    <contour>
      <point x="252" y="653" type="line"/>
      <point x="164" y="653" type="line"/>
      <point x="164" y="579" type="line"/>
      <point x="252" y="579" type="line"/>
    </contour>
    <contour>
      <point x="147" y="525" type="line"/>
      <point x="68" y="525" type="line"/>
      <point x="68" y="0" type="line"/>
      <point x="147" y="0" type="line"/>
    </contour>
  </outline>
</glyph>
<glyph name="otilde" format="1">
  <advance width="570"/>
  <unicode hex="00F5"/>
  <outline>
    <contour>
      <point x="412" y="689" type="line"/>
      <point x="401" y="670"/>
      <point x="372" y="645"/>
      <point x="354" y="645" type="qcurve" smooth="yes"/>
      <point x="342" y="645"/>
      <point x="310" y="656"/>
      <point x="285" y="667" type="qcurve" smooth="yes"/>
      <point x="281" y="669" type="line" smooth="yes"/>
      <point x="255" y="679"/>
      <point x="226" y="688"/>
      <point x="212" y="688" type="qcurve" smooth="yes"/>
      <point x="179" y="688"/>
      <point x="133" y="648"/>
      <point x="116" y="614" type="qcurve"/>
      <point x="161" y="588" type="line"/>
      <point x="163" y="592"/>
      <point x="165" y="594" type="qcurve" smooth="yes"/>
      <point x="175" y="613"/>
      <point x="193" y="629"/>
      <point x="211" y="629" type="qcurve" smooth="yes"/>
      <point x="229" y="629"/>
      <point x="272" y="611" type="qcurve" smooth="yes"/>
      <point x="279" y="608" type="line" smooth="yes"/>
      <point x="304" y="597"/>
      <point x="337" y="586"/>
      <point x="352" y="586" type="qcurve" smooth="yes"/>
      <point x="385" y="586"/>
      <point x="436" y="628"/>
      <point x="455" y="661" type="qcurve"/>
    </contour>
    <contour>
      <point x="52" y="262" type="qcurve" smooth="yes"/>
      <point x="52" y="175"/>
      <point x="71" y="73"/>
      <point x="120" y="17"/>
      <point x="209" y="-6"/>
      <point x="285" y="-6" type="qcurve" smooth="yes"/>
      <point x="361" y="-6"/>
      <point x="450" y="16"/>
      <point x="499" y="74"/>
      <point x="518" y="175"/>
      <point x="518" y="262" type="qcurve" smooth="yes"/>
      <point x="518" y="349"/>
      <point x="499" y="451"/>
      <point x="450" y="508"/>
      <point x="361" y="531"/>
      <point x="285" y="531" type="qcurve" smooth="yes"/>
      <point x="209" y="531"/>
      <point x="120" y="508"/>
      <point x="71" y="451"/>
      <point x="52" y="349"/>
    </contour>
    <contour>
      <point x="134" y="262" type="qcurve" smooth="yes"/>
      <point x="134" y="337"/>
      <point x="143" y="413"/>
      <point x="171" y="453"/>
      <point x="229" y="467"/>
      <point x="285" y="467" type="qcurve" smooth="yes"/>
      <point x="341" y="467"/>
      <point x="399" y="453"/>
      <point x="428" y="413"/>
      <point x="436" y="337"/>
      <point x="436" y="262" type="qcurve" smooth="yes"/>
      <point x="436" y="187"/>
      <point x="428" y="112"/>
      <point x="399" y="72"/>
      <point x="341" y="58"/>
      <point x="285" y="58" type="qcurve" smooth="yes"/>
      <point x="229" y="58"/>
      <point x="171" y="72"/>
      <point x="143" y="112"/>
      <point x="134" y="187"/>
    </contour>
  </outline>
</glyph>
<glyph name="oslash" format="1">
  <advance width="570"/>
  <unicode hex="00F8"/>
  <outline>
    <contour>
      <point x="532" y="540" type="line"/>
      <point x="472" y="482" type="line"/>
      <point x="456" y="500"/>
      <point x="411" y="520"/>
      <point x="363" y="529"/>
      <point x="319" y="531"/>
      <point x="289" y="531" type="qcurve" smooth="yes"/>
      <point x="209" y="531"/>
      <point x="116" y="505"/>
      <point x="68" y="445"/>
      <point x="52" y="346"/>
      <point x="52" y="262" type="qcurve" smooth="yes"/>
      <point x="52" y="195"/>
      <point x="59" y="115"/>
      <point x="72" y="90" type="qcurve"/>
      <point x="31" y="50" type="line"/>
      <point x="31" y="-16" type="line"/>
      <point x="94" y="45" type="line"/>
      <point x="109" y="28"/>
      <point x="157" y="7"/>
      <point x="212" y="-3"/>
      <point x="262" y="-6"/>
      <point x="289" y="-6" type="qcurve" smooth="yes"/>
      <point x="365" y="-6"/>
      <point x="455" y="24"/>
      <point x="501" y="86"/>
      <point x="517" y="182"/>
      <point x="518" y="262" type="qcurve" smooth="yes"/>
      <point x="518" y="334"/>
      <point x="510" y="407"/>
      <point x="498" y="436" type="qcurve"/>
      <point x="532" y="472" type="line"/>
    </contour>
    <contour>
      <point x="434" y="370" type="line"/>
      <point x="436" y="334"/>
      <point x="436" y="262" type="qcurve" smooth="yes"/>
      <point x="434" y="182"/>
      <point x="425" y="108"/>
      <point x="399" y="70"/>
      <point x="345" y="58"/>
      <point x="289" y="58" type="qcurve" smooth="yes"/>
      <point x="269" y="58"/>
      <point x="231" y="60"/>
      <point x="189" y="68"/>
      <point x="156" y="87"/>
      <point x="152" y="102" type="qcurve"/>
    </contour>
    <contour>
      <point x="137" y="155" type="line"/>
      <point x="136" y="180"/>
      <point x="135" y="226" type="qcurve" smooth="yes"/>
      <point x="135" y="239"/>
      <point x="134" y="262" type="qcurve" smooth="yes"/>
      <point x="134" y="274"/>
      <point x="134" y="285" type="qcurve" smooth="yes"/>
      <point x="133" y="304" type="line" smooth="yes"/>
      <point x="133" y="362"/>
      <point x="147" y="426"/>
      <point x="180" y="457"/>
      <point x="237" y="467"/>
      <point x="289" y="467" type="qcurve" smooth="yes"/>
      <point x="307" y="467"/>
      <point x="340" y="465"/>
      <point x="379" y="458"/>
      <point x="412" y="440"/>
      <point x="418" y="426" type="qcurve"/>
    </contour>
  </outline>
</glyph>
<glyph name="ucircumflex" format="1">
  <advance width="570"/>
  <unicode hex="00FB"/>
  <outline>
    <contour>
      <point x="287" y="736" type="line"/>
      <point x="111" y="628" type="line"/>
      <point x="132" y="586" type="line"/>
      <point x="287" y="662" type="line"/>
      <point x="436" y="586" type="line"/>
      <point x="460" y="628" type="line"/>
    </contour>
    <contour>
      <point x="420" y="0" type="line"/>
      <point x="500" y="0" type="line"/>
      <point x="500" y="525" type="line"/>
      <point x="421" y="525" type="line"/>
      <point x="421" y="201" type="line" smooth="yes"/>
      <point x="421" y="113"/>
      <point x="344" y="58"/>
      <point x="253" y="58" type="qcurve" smooth="yes"/>
      <point x="182" y="58"/>
      <point x="145" y="116"/>
      <point x="145" y="188" type="qcurve" smooth="yes"/>
      <point x="145" y="525" type="line"/>
      <point x="66" y="525" type="line"/>
      <point x="66" y="188" type="line" smooth="yes"/>
      <point x="66" y="83"/>
      <point x="151" y="-6"/>
      <point x="254" y="-6" type="qcurve" smooth="yes"/>
      <point x="315" y="-6"/>
      <point x="399" y="26"/>
      <point x="418" y="70" type="qcurve"/>
      <point x="420" y="70" type="line"/>
    </contour>
  </outline>
</glyph>
<glyph name="yacute" format="1">
  <advance width="437"/>
  <unicode hex="00FD"/>
  <outline>
    <contour>
      <point x="292" y="743" type="line"/>
      <point x="143" y="630" type="line"/>
      <point x="170" y="589" type="line"/>
      <point x="331" y="689" type="line"/>
    </contour>
    <contour>
      <point x="441" y="525" type="line"/>
      <point x="359" y="525" type="line"/>
      <point x="241" y="58" type="line"/>
      <point x="239" y="58" type="line"/>
      <point x="77" y="525" type="line"/>
      <point x="-4" y="525" type="line"/>
      <point x="186" y="0" type="line"/>
      <point x="214" y="0" type="line"/>
      <point x="211" y="-11"/>
      <point x="205" y="-35" type="qcurve" smooth="yes"/>
      <point x="198" y="-65"/>
      <point x="185" y="-108"/>
      <point x="163" y="-146"/>
      <point x="129" y="-170"/>
      <point x="105" y="-170" type="qcurve" smooth="yes"/>
      <point x="91" y="-170"/>
      <point x="77" y="-167" type="qcurve"/>
      <point x="77" y="-228" type="line"/>
      <point x="82" y="-229"/>
      <point x="84" y="-229" type="qcurve" smooth="yes"/>
      <point x="103" y="-233"/>
      <point x="113" y="-233" type="qcurve" smooth="yes"/>
      <point x="156" y="-233"/>
      <point x="216" y="-203"/>
      <point x="252" y="-153"/>
      <point x="273" y="-96"/>
      <point x="287" y="-47" type="qcurve" smooth="yes"/>
      <point x="290" y="-37" type="line"/>
    </contour>
  </outline>
</glyph>
<glyph name="oe" format="1">
  <advance width="942"/>
  <unicode hex="0153"/>
  <outline>
    <contour>
      <point x="432" y="262" type="qcurve" smooth="yes"/>
      <point x="432" y="189"/>
      <point x="425" y="117"/>
      <point x="398" y="75"/>
      <point x="339" y="58"/>
      <point x="283" y="58" type="qcurve" smooth="yes"/>
      <point x="229" y="58"/>
      <point x="171" y="74"/>
      <point x="142" y="117"/>
      <point x="133" y="191"/>
      <point x="133" y="262" type="qcurve" smooth="yes"/>
      <point x="133" y="338"/>
      <point x="139" y="408"/>
      <point x="164" y="450"/>
      <point x="219" y="467"/>
      <point x="273" y="467" type="qcurve" smooth="yes"/>
      <point x="336" y="467"/>
      <point x="395" y="456"/>
      <point x="424" y="417"/>
      <point x="432" y="342"/>
    </contour>
    <contour>
      <point x="51" y="262" type="qcurve" smooth="yes"/>
      <point x="51" y="185"/>
      <point x="67" y="89"/>
      <point x="112" y="25"/>
      <point x="202" y="-6"/>
      <point x="276" y="-6" type="qcurve" smooth="yes"/>
      <point x="317" y="-6"/>
      <point x="374" y="-2"/>
      <point x="426" y="12"/>
      <point x="464" y="42"/>
      <point x="473" y="67" type="qcurve"/>
      <point x="494" y="21"/>
      <point x="588" y="-6"/>
      <point x="668" y="-6" type="qcurve" smooth="yes"/>
      <point x="721" y="-6"/>
      <point x="796" y="2"/>
      <point x="857" y="30"/>
      <point x="892" y="90"/>
      <point x="892" y="140" type="qcurve" smooth="yes"/>
      <point x="892" y="159" type="line"/>
      <point x="811" y="159" type="line"/>
      <point x="811" y="139" type="line" smooth="yes"/>
      <point x="811" y="86"/>
      <point x="754" y="58"/>
      <point x="668" y="58" type="qcurve" smooth="yes"/>
      <point x="611" y="58"/>
      <point x="553" y="71"/>
      <point x="523" y="108"/>
      <point x="514" y="177"/>
      <point x="514" y="245" type="qcurve"/>
      <point x="892" y="245" type="line"/>
      <point x="892" y="298" type="line" smooth="yes"/>
      <point x="892" y="372"/>
      <point x="870" y="462"/>
      <point x="819" y="512"/>
      <point x="735" y="531"/>
      <point x="668" y="531" type="qcurve" smooth="yes"/>
      <point x="631" y="531"/>
      <point x="575" y="527"/>
      <point x="523" y="512"/>
      <point x="483" y="482"/>
      <point x="474" y="457" type="qcurve"/>
      <point x="472" y="457" type="line"/>
      <point x="467" y="482"/>
      <point x="429" y="513"/>
      <point x="374" y="527"/>
      <point x="312" y="531"/>
      <point x="270" y="531" type="qcurve" smooth="yes"/>
      <point x="194" y="531"/>
      <point x="105" y="498"/>
      <point x="63" y="434"/>
      <point x="51" y="341"/>
    </contour>
    <contour>
      <point x="514" y="309" type="line"/>
      <point x="517" y="362"/>
      <point x="526" y="417"/>
      <point x="554" y="452"/>
      <point x="614" y="467"/>
      <point x="668" y="467" type="qcurve" smooth="yes"/>
      <point x="719" y="467"/>
      <point x="769" y="458"/>
      <point x="797" y="429"/>
      <point x="808" y="368"/>
      <point x="810" y="309" type="qcurve"/>
    </contour>
  </outline>
</glyph>
<glyph name="florin" format="1">
  <advance width="690"/>
  <unicode hex="0192"/>
  <outline>
    <contour>
      <point x="413" y="420" type="line"/>
      <point x="551" y="420" type="line"/>
      <point x="563" y="485" type="line"/>
      <point x="424" y="485" type="line"/>
      <point x="443" y="595" type="line" smooth="yes"/>
      <point x="453" y="653"/>
      <point x="485" y="691"/>
      <point x="541" y="691" type="qcurve" smooth="yes"/>
      <point x="554" y="691"/>
      <point x="580" y="689" type="qcurve" smooth="yes"/>
      <point x="599" y="688" type="line"/>
      <point x="610" y="754" type="line"/>
      <point x="570" y="756"/>
      <point x="549" y="756" type="qcurve" smooth="yes"/>
      <point x="499" y="756"/>
      <point x="434" y="739"/>
      <point x="393" y="700"/>
      <point x="371" y="638"/>
      <point x="363" y="588" type="qcurve" smooth="yes"/>
      <point x="344" y="485" type="line"/>
      <point x="241" y="485" type="line"/>
      <point x="230" y="420" type="line"/>
      <point x="333" y="420" type="line"/>
      <point x="247" y="-68" type="line" smooth="yes"/>
      <point x="237" y="-126"/>
      <point x="203" y="-168"/>
      <point x="149" y="-168" type="qcurve" smooth="yes"/>
      <point x="124" y="-168"/>
      <point x="91" y="-161" type="qcurve"/>
      <point x="80" y="-225" type="line"/>
      <point x="112" y="-233"/>
      <point x="139" y="-233" type="qcurve" smooth="yes"/>
      <point x="191" y="-233"/>
      <point x="257" y="-216"/>
      <point x="297" y="-176"/>
      <point x="319" y="-113"/>
      <point x="327" y="-61" type="qcurve" smooth="yes"/>
    </contour>
  </outline>
</glyph>
<glyph name="circumflex" format="1">
  <advance width="499"/>
  <unicode hex="02C6"/>
  <outline>
    <contour>
      <point x="251" y="736" type="line"/>
      <point x="75" y="628" type="line"/>
      <point x="96" y="586" type="line"/>
      <point x="251" y="662" type="line"/>
      <point x="400" y="586" type="line"/>
      <point x="424" y="628" type="line"/>
    </contour>
  </outline>
</glyph>
<glyph name="tilde" format="1">
  <advance width="489"/>
  <unicode hex="02DC"/>
  <outline>
    <contour>
      <point x="371" y="689" type="line"/>
      <point x="360" y="670"/>
      <point x="331" y="645"/>
      <point x="313" y="645" type="qcurve" smooth="yes"/>
      <point x="301" y="645"/>
      <point x="269" y="656"/>
      <point x="244" y="667" type="qcurve" smooth="yes"/>
      <point x="240" y="669" type="line" smooth="yes"/>
      <point x="214" y="679"/>
      <point x="185" y="688"/>
      <point x="171" y="688" type="qcurve" smooth="yes"/>
      <point x="138" y="688"/>
      <point x="92" y="648"/>
      <point x="75" y="614" type="qcurve"/>
      <point x="120" y="588" type="line"/>
      <point x="122" y="592"/>
      <point x="124" y="594" type="qcurve" smooth="yes"/>
      <point x="134" y="613"/>
      <point x="152" y="629"/>
      <point x="170" y="629" type="qcurve" smooth="yes"/>
      <point x="188" y="629"/>
      <point x="231" y="611" type="qcurve" smooth="yes"/>
      <point x="238" y="608" type="line" smooth="yes"/>
      <point x="263" y="597"/>
      <point x="296" y="586"/>
      <point x="311" y="586" type="qcurve" smooth="yes"/>
      <point x="344" y="586"/>
      <point x="395" y="628"/>
      <point x="414" y="661" type="qcurve"/>
    </contour>
  </outline>
</glyph>
<glyph name="quoteright" format="1">
  <advance width="201"/>
  <unicode hex="2019"/>
  <outline>
    <contour>
      <point x="100" y="648" type="line"/>
      <point x="100" y="629" type="line" smooth="yes"/>
      <point x="100" y="602"/>
      <point x="79" y="582"/>
      <point x="51" y="581" type="qcurve"/>
      <point x="51" y="536" type="line"/>
      <point x="74" y="536" type="line" smooth="yes"/>
      <point x="120" y="536"/>
      <point x="151" y="583"/>
      <point x="151" y="629" type="qcurve" smooth="yes"/>
      <point x="151" y="750" type="line"/>
      <point x="62" y="750" type="line"/>
      <point x="62" y="648" type="line"/>
    </contour>
  </outline>
</glyph>
<glyph name="quotesinglbase" format="1">
  <advance width="228"/>
  <unicode hex="201A"/>
  <outline>
    <contour>
      <point x="113" y="0" type="line"/>
      <point x="113" y="-19" type="line" smooth="yes"/>
      <point x="113" y="-46"/>
      <point x="92" y="-66"/>
      <point x="64" y="-67" type="qcurve"/>
      <point x="64" y="-112" type="line"/>
      <point x="87" y="-112" type="line" smooth="yes"/>
      <point x="133" y="-112"/>
      <point x="164" y="-65"/>
      <point x="164" y="-19" type="qcurve" smooth="yes"/>
      <point x="164" y="102" type="line"/>
      <point x="75" y="102" type="line"/>
      <point x="75" y="0" type="line"/>
    </contour>
  </outline>
</glyph>
<glyph name="quotedblright" format="1">
  <advance width="359"/>
  <unicode hex="201D"/>
  <outline>
    <contour>
      <point x="100" y="648" type="line"/>
      <point x="100" y="629" type="line" smooth="yes"/>
      <point x="100" y="602"/>
      <point x="79" y="582"/>
      <point x="51" y="581" type="qcurve"/>
      <point x="51" y="536" type="line"/>
      <point x="74" y="536" type="line" smooth="yes"/>
      <point x="120" y="536"/>
      <point x="151" y="583"/>
      <point x="151" y="629" type="qcurve" smooth="yes"/>
      <point x="151" y="750" type="line"/>
      <point x="62" y="750" type="line"/>
      <point x="62" y="648" type="line"/>
    </contour>
    <contour>
      <point x="257" y="648" type="line"/>
      <point x="257" y="629" type="line" smooth="yes"/>
      <point x="257" y="602"/>
      <point x="236" y="582"/>
      <point x="208" y="581" type="qcurve"/>
      <point x="208" y="536" type="line"/>
      <point x="231" y="536" type="line" smooth="yes"/>
      <point x="277" y="536"/>
      <point x="308" y="583"/>
      <point x="308" y="629" type="qcurve" smooth="yes"/>
      <point x="308" y="750" type="line"/>
      <point x="219" y="750" type="line"/>
      <point x="219" y="648" type="line"/>
    </contour>
  </outline>
</glyph>
<glyph name="quotedblbase" format="1">
  <advance width="359"/>
  <unicode hex="201E"/>
  <outline>
    <contour>
      <point x="100" y="0" type="line"/>
      <point x="100" y="-19" type="line" smooth="yes"/>
      <point x="100" y="-46"/>
      <point x="79" y="-66"/>
      <point x="51" y="-67" type="qcurve"/>
      <point x="51" y="-112" type="line"/>
      <point x="74" y="-112" type="line" smooth="yes"/>
      <point x="120" y="-112"/>
      <point x="151" y="-65"/>
      <point x="151" y="-19" type="qcurve" smooth="yes"/>
      <point x="151" y="102" type="line"/>
      <point x="62" y="102" type="line"/>
      <point x="62" y="0" type="line"/>
    </contour>
    <contour>
      <point x="257" y="0" type="line"/>
      <point x="257" y="-19" type="line" smooth="yes"/>
      <point x="257" y="-46"/>
      <point x="236" y="-66"/>
      <point x="208" y="-67" type="qcurve"/>
      <point x="208" y="-112" type="line"/>
      <point x="231" y="-112" type="line" smooth="yes"/>
      <point x="277" y="-112"/>
      <point x="308" y="-65"/>
      <point x="308" y="-19" type="qcurve" smooth="yes"/>
      <point x="308" y="102" type="line"/>
      <point x="219" y="102" type="line"/>
      <point x="219" y="0" type="line"/>
    </contour>
  </outline>
</glyph>
<glyph name="dagger" format="1">
  <advance width="690"/>
  <unicode hex="2020"/>
  <outline>
    <contour>
      <point x="387" y="750" type="line"/>
      <point x="302" y="750" type="line"/>
      <point x="302" y="544" type="line"/>
      <point x="130" y="544" type="line"/>
      <point x="130" y="474" type="line"/>
      <point x="302" y="474" type="line"/>
      <point x="302" y="-209" type="line"/>
      <point x="387" y="-209" type="line"/>
      <point x="387" y="474" type="line"/>
      <point x="560" y="474" type="line"/>
      <point x="560" y="544" type="line"/>
      <point x="387" y="544" type="line"/>
    </contour>
  </outline>
</glyph>
<glyph name="ellipsis" format="1">
  <advance width="1000"/>
  <unicode hex="2026"/>
  <outline>
    <contour>
      <point x="212" y="102" type="line"/>
      <point x="123" y="102" type="line"/>
      <point x="123" y="0" type="line"/>
      <point x="212" y="0" type="line"/>
    </contour>
    <contour>
      <point x="545" y="102" type="line"/>
      <point x="456" y="102" type="line"/>
      <point x="456" y="0" type="line"/>
      <point x="545" y="0" type="line"/>
    </contour>
    <contour>
      <point x="878" y="102" type="line"/>
      <point x="789" y="102" type="line"/>
      <point x="789" y="0" type="line"/>
      <point x="878" y="0" type="line"/>
    </contour>
  </outline>
</glyph>
<glyph name="perthousand" format="1">
  <advance width="1282"/>
  <unicode hex="2030"/>
  <outline>
    <contour>
      <point x="862" y="240" type="line" smooth="yes"/>
      <point x="861" y="285"/>
      <point x="842" y="338"/>
      <point x="803" y="366"/>
      <point x="744" y="375"/>
      <point x="696" y="375" type="qcurve" smooth="yes"/>
      <point x="649" y="375"/>
      <point x="592" y="365"/>
      <point x="556" y="338"/>
      <point x="538" y="285"/>
      <point x="537" y="239" type="qcurve" smooth="yes"/>
      <point x="537" y="129" type="line" smooth="yes"/>
      <point x="538" y="84"/>
      <point x="556" y="31"/>
      <point x="592" y="3"/>
      <point x="649" y="-6"/>
      <point x="697" y="-6" type="qcurve" smooth="yes"/>
      <point x="745" y="-6"/>
      <point x="804" y="4"/>
      <point x="842" y="32"/>
      <point x="861" y="85"/>
      <point x="862" y="130" type="qcurve" smooth="yes"/>
    </contour>
    <contour>
      <point x="729" y="750" type="line"/>
      <point x="659" y="750" type="line"/>
      <point x="153" y="-6" type="line"/>
      <point x="220" y="-6" type="line"/>
    </contour>
    <contour>
      <point x="802" y="132" type="line" smooth="yes"/>
      <point x="802" y="100"/>
      <point x="792" y="67"/>
      <point x="769" y="52"/>
      <point x="734" y="49"/>
      <point x="696" y="49" type="qcurve" smooth="yes"/>
      <point x="659" y="49"/>
      <point x="626" y="52"/>
      <point x="605" y="67"/>
      <point x="597" y="100"/>
      <point x="597" y="132" type="qcurve" smooth="yes"/>
      <point x="597" y="242" type="line" smooth="yes"/>
      <point x="597" y="272"/>
      <point x="605" y="303"/>
      <point x="626" y="317"/>
      <point x="659" y="320"/>
      <point x="696" y="320" type="qcurve" smooth="yes"/>
      <point x="736" y="320"/>
      <point x="771" y="317"/>
      <point x="793" y="303"/>
      <point x="802" y="272"/>
      <point x="802" y="242" type="qcurve" smooth="yes"/>
    </contour>
    <contour>
      <point x="1260" y="240" type="line" smooth="yes"/>
      <point x="1259" y="285"/>
      <point x="1240" y="338"/>
      <point x="1201" y="366"/>
      <point x="1142" y="375"/>
      <point x="1094" y="375" type="qcurve" smooth="yes"/>
      <point x="1047" y="375"/>
      <point x="990" y="365"/>
      <point x="954" y="338"/>
      <point x="936" y="285"/>
      <point x="935" y="239" type="qcurve" smooth="yes"/>
      <point x="935" y="129" type="line" smooth="yes"/>
      <point x="936" y="84"/>
      <point x="954" y="31"/>
      <point x="990" y="3"/>
      <point x="1047" y="-6"/>
      <point x="1095" y="-6" type="qcurve" smooth="yes"/>
      <point x="1143" y="-6"/>
      <point x="1202" y="4"/>
      <point x="1240" y="32"/>
      <point x="1259" y="85"/>
      <point x="1260" y="130" type="qcurve" smooth="yes"/>
    </contour>
    <contour>
      <point x="1200" y="132" type="line" smooth="yes"/>
      <point x="1200" y="100"/>
      <point x="1190" y="67"/>
      <point x="1167" y="52"/>
      <point x="1132" y="49"/>
      <point x="1094" y="49" type="qcurve" smooth="yes"/>
      <point x="1057" y="49"/>
      <point x="1024" y="52"/>
      <point x="1003" y="67"/>
      <point x="995" y="100"/>
      <point x="995" y="132" type="qcurve" smooth="yes"/>
      <point x="995" y="242" type="line" smooth="yes"/>
      <point x="995" y="272"/>
      <point x="1003" y="303"/>
      <point x="1024" y="317"/>
      <point x="1057" y="320"/>
      <point x="1094" y="320" type="qcurve" smooth="yes"/>
      <point x="1134" y="320"/>
      <point x="1169" y="317"/>
      <point x="1191" y="303"/>
      <point x="1200" y="272"/>
      <point x="1200" y="242" type="qcurve" smooth="yes"/>
    </contour>
    <contour>
      <point x="347" y="621" type="line" smooth="yes"/>
      <point x="346" y="666"/>
      <point x="327" y="719"/>
      <point x="288" y="747"/>
      <point x="229" y="756"/>
      <point x="181" y="756" type="qcurve" smooth="yes"/>
      <point x="134" y="756"/>
      <point x="77" y="746"/>
      <point x="41" y="719"/>
      <point x="23" y="666"/>
      <point x="22" y="620" type="qcurve" smooth="yes"/>
      <point x="22" y="510" type="line" smooth="yes"/>
      <point x="23" y="465"/>
      <point x="41" y="412"/>
      <point x="77" y="384"/>
      <point x="134" y="375"/>
      <point x="182" y="375" type="qcurve" smooth="yes"/>
      <point x="230" y="375"/>
      <point x="289" y="385"/>
      <point x="327" y="413"/>
      <point x="346" y="466"/>
      <point x="347" y="511" type="qcurve" smooth="yes"/>
    </contour>
    <contour>
      <point x="287" y="513" type="line" smooth="yes"/>
      <point x="287" y="481"/>
      <point x="277" y="448"/>
      <point x="254" y="433"/>
      <point x="219" y="430"/>
      <point x="181" y="430" type="qcurve" smooth="yes"/>
      <point x="144" y="430"/>
      <point x="111" y="433"/>
      <point x="90" y="448"/>
      <point x="82" y="481"/>
      <point x="82" y="513" type="qcurve" smooth="yes"/>
      <point x="82" y="623" type="line" smooth="yes"/>
      <point x="82" y="653"/>
      <point x="90" y="684"/>
      <point x="111" y="698"/>
      <point x="144" y="701"/>
      <point x="181" y="701" type="qcurve" smooth="yes"/>
      <point x="221" y="701"/>
      <point x="256" y="698"/>
      <point x="278" y="684"/>
      <point x="287" y="653"/>
      <point x="287" y="623" type="qcurve" smooth="yes"/>
    </contour>
  </outline>
</glyph>
<glyph name="guilsinglleft" format="1">
  <advance width="318"/>
  <unicode hex="2039"/>
  <outline>
    <contour>
      <point x="191" y="575" type="line"/>
      <point x="56" y="289" type="line"/>
      <point x="207" y="0" type="line"/>
      <point x="262" y="36" type="line"/>
      <point x="131" y="289" type="line"/>
      <point x="249" y="540" type="line"/>
    </contour>
  </outline>
</glyph>
<glyph name="guilsinglright" format="1">
  <advance width="318"/>
  <unicode hex="203A"/>
  <outline>
    <contour>
      <point x="69" y="540" type="line"/>
      <point x="187" y="289" type="line"/>
      <point x="56" y="36" type="line"/>
      <point x="111" y="0" type="line"/>
      <point x="262" y="289" type="line"/>
      <point x="127" y="575" type="line"/>
    </contour>
  </outline>
</glyph>
